<?xml version="1.0" standalone="no"?>
<!DOCTYPE svg PUBLIC "-//W3C//DTD SVG 20010904//EN"
 "http://www.w3.org/TR/2001/REC-SVG-20010904/DTD/svg10.dtd">
<svg version="1.0" xmlns="http://www.w3.org/2000/svg"
 width="1696.000000pt" height="1006.000000pt" viewBox="0 0 1696.000000 1006.000000"
 preserveAspectRatio="xMidYMid meet">
<metadata>
Created by potrace 1.13, written by Peter Selinger 2001-2015
</metadata>
<g transform="translate(0.000000,1006.000000) scale(0.100000,-0.100000)"
fill="#000000" stroke="none">
<path d="M1290 9225 l0 -755 -105 0 -105 0 0 -225 0 -225 105 0 105 0 0 -420
0 -420 -105 0 -105 0 0 -225 0 -225 105 0 105 0 0 -205 0 -205 -105 0 -105 0
0 -225 0 -225 105 0 105 0 0 -205 0 -205 -105 0 -105 0 0 -225 0 -225 105 0
105 0 0 -420 0 -420 -105 0 -105 0 0 -225 0 -225 105 0 105 0 -2 -742 -3 -743
-102 -3 -103 -3 0 -219 0 -219 103 -3 102 -3 3 -744 c1 -529 5 -748 13 -758
10 -11 652 -13 3880 -13 l3869 0 0 -100 0 -100 330 0 330 0 0 100 0 100 3020
0 3020 0 0 810 0 809 103 3 102 3 3 222 2 223 -105 0 -105 0 0 960 0 960 105
0 105 0 0 220 0 220 -105 0 -105 0 0 690 0 689 103 3 102 3 3 223 2 222 -105
0 -105 0 0 530 0 530 105 0 105 0 0 225 0 225 -105 0 -105 0 0 970 0 970
-7230 0 -7230 0 0 -755z m14420 -230 l0 -955 -95 0 -95 0 0 -110 0 -110 -402
0 -403 1 -28 28 c-28 28 -28 29 -25 152 l3 124 85 6 85 5 -82 2 c-46 1 -83 4
-83 7 0 3 29 64 65 135 l65 129 -68 3 -67 3 -5 130 -4 130 -6 -130 -5 -130
-67 -3 -68 -3 65 -129 c36 -71 65 -132 65 -135 0 -3 -37 -6 -82 -7 l-83 -2 85
-5 85 -6 3 -124 c3 -123 3 -124 -25 -152 l-28 -28 -422 -1 -423 0 0 -1170 0
-1170 -190 95 c-104 52 -194 95 -200 95 -6 0 -10 -77 -10 -215 l0 -215 -635 0
-635 0 0 755 0 755 -215 0 -215 0 0 205 0 205 265 0 c170 0 265 4 265 10 0 6
-95 10 -265 10 l-265 0 0 105 c0 58 -3 105 -6 105 -3 0 -202 -97 -441 -215
l-436 -215 -203 0 -204 0 -2 323 -3 322 -322 3 -323 2 0 215 0 215 -215 0
-215 0 0 310 0 310 174 0 174 0 6 -33 c14 -72 83 -146 157 -167 19 -6 121 -10
226 -10 l193 0 0 40 0 40 65 0 65 0 0 -255 0 -255 219 0 219 0 430 -214 c237
-118 433 -212 436 -209 3 4 6 51 6 105 l0 98 210 0 c133 0 210 4 210 10 0 6
-77 10 -210 10 l-210 0 0 205 0 205 215 0 215 0 0 192 c0 256 -16 238 222 238
l178 0 0 -30 c0 -16 3 -30 7 -30 5 0 57 16 118 37 l110 36 -110 37 c-60 21
-113 35 -117 33 -5 -2 -8 -17 -8 -34 l0 -29 -175 0 c-173 0 -174 0 -200 25
l-25 26 0 189 0 190 -215 0 -215 0 0 205 0 205 210 0 c133 0 210 4 210 10 0 6
-77 10 -210 10 l-210 0 0 110 c0 61 -2 110 -5 110 -3 0 -199 -97 -435 -215
l-430 -215 -220 0 -220 0 0 -255 0 -255 -65 0 -65 0 0 41 0 41 -207 -4 c-200
-3 -210 -4 -253 -28 -56 -31 -106 -97 -115 -150 l-7 -40 -184 0 -184 0 0 -320
0 -320 -420 0 -420 0 0 105 0 105 -540 0 -540 0 0 205 0 205 215 0 215 0 2
218 3 217 200 0 200 0 3 -32 c2 -18 7 -33 11 -33 12 0 178 57 197 68 13 7 -5
17 -82 42 -54 18 -105 35 -111 38 -9 3 -13 -7 -13 -32 l0 -36 -205 0 -205 0 0
215 0 215 -870 0 -870 0 0 -215 0 -215 -959 0 -958 0 -7 41 c-20 124 -144 229
-271 229 -127 0 -251 -105 -271 -229 l-7 -41 -268 0 -269 0 0 -405 0 -404 -25
-26 -26 -25 -719 0 -720 0 0 110 0 110 -105 0 -105 0 0 733 c0 404 3 737 7
740 3 4 3241 7 7195 7 l7188 0 0 -955z m-4080 319 l0 -416 -410 208 c-225 114
-410 210 -410 214 0 5 799 408 813 409 4 1 7 -186 7 -415z m-3872 -211 l-3
-418 -852 -3 -853 -2 0 420 0 420 855 0 855 0 -2 -417z m-3846 247 c101 -28
178 -135 178 -245 0 -76 -18 -123 -71 -180 -94 -102 -253 -107 -357 -11 -89
81 -110 195 -56 302 58 116 179 169 306 134z m7297 -254 c236 -118 432 -212
435 -209 3 4 6 53 6 110 l0 103 205 0 205 0 0 -188 c0 -176 -1 -188 -20 -200
-11 -7 -20 -23 -20 -37 0 -14 9 -30 20 -37 19 -12 20 -24 20 -200 l0 -188
-205 0 -205 0 0 109 0 109 -434 -214 -435 -214 -210 0 -211 0 -2 253 -3 252
-72 3 -73 3 0 54 0 55 285 0 c183 0 285 4 285 10 0 6 -102 10 -285 10 l-285 0
0 60 0 59 73 3 72 3 3 253 2 252 210 0 210 0 429 -214z m-7655 -8 c31 -113 40
-133 85 -178 154 -154 410 -81 465 133 l13 52 956 3 957 2 2 -217 3 -218 213
-3 212 -2 0 -205 0 -205 -398 0 c-386 0 -398 1 -410 20 -8 13 -23 20 -42 20
-19 0 -34 -7 -42 -20 -12 -19 -24 -20 -200 -20 l-188 0 -430 215 c-236 118
-432 215 -435 215 -3 0 -5 -97 -5 -215 l0 -215 -611 0 -612 0 -23 26 -24 25 0
400 0 399 255 0 c196 0 256 -3 259 -12z m6636 -413 l0 -205 -190 0 c-149 0
-199 3 -228 15 -84 36 -126 106 -120 201 5 82 38 132 109 168 51 25 58 26 241
26 l188 0 0 -205z m-3300 -434 c0 -269 4 -422 10 -426 7 -4 10 138 10 419 l0
426 210 0 210 0 0 -215 0 -215 535 0 535 0 0 -95 0 -95 -215 0 -215 0 0 -440
0 -440 430 0 430 0 0 -200 0 -200 -30 0 c-17 0 -30 -5 -30 -12 0 -18 64 -208
70 -208 8 0 79 208 72 214 -3 3 -18 6 -34 6 l-28 0 0 200 0 200 205 0 205 0 0
-530 0 -530 -205 0 -205 0 0 110 0 110 -220 0 c-140 0 -220 -4 -220 -10 0 -6
77 -10 210 -10 l210 0 0 -100 0 -100 -105 0 -105 0 0 -535 0 -535 -640 0 -640
0 0 265 0 265 -870 0 -870 0 0 -545 0 -545 430 0 430 0 0 -375 0 -375 435 0
435 0 0 -205 0 -205 -990 0 -990 0 0 183 c0 171 1 183 20 195 27 17 27 68 0
82 -19 10 -20 21 -20 310 l0 300 -1155 0 -1155 0 0 400 c0 387 1 401 20 420
19 19 33 20 205 20 l185 0 0 -210 0 -210 870 0 870 0 0 435 0 435 -870 0 -870
0 0 -215 0 -215 -185 0 c-170 0 -185 1 -194 19 -17 30 -50 33 -78 5 l-24 -24
-719 0 -720 0 0 110 0 110 -105 0 -105 0 0 205 0 205 105 0 105 0 0 105 0 105
1475 0 c1462 0 1475 0 1495 -20 11 -11 27 -20 35 -20 8 0 24 9 35 20 19 19 33
20 415 20 l395 0 0 -30 c0 -16 3 -30 7 -30 15 0 198 62 206 70 5 4 -36 22 -90
40 -54 18 -104 35 -110 38 -9 3 -13 -7 -13 -32 l0 -36 -391 0 -391 0 -29 27
-29 28 0 177 0 178 323 2 322 3 3 108 3 107 204 0 204 0 3 -107 3 -108 760 0
760 0 3 108 3 107 94 0 95 0 0 -34 0 -34 110 36 c60 20 106 39 102 43 -7 7
-192 69 -205 69 -4 0 -7 -13 -7 -30 l0 -30 -95 0 -95 0 0 105 0 105 -765 0
-765 0 0 -105 0 -105 -205 0 -205 0 0 205 0 205 215 0 215 0 0 512 c0 512 0
512 22 535 l21 23 409 0 408 0 0 215 0 215 205 0 205 0 0 -419z m-2135 205
l410 -203 -195 -98 c-107 -54 -295 -146 -417 -206 l-223 -108 0 410 c0 225 3
409 8 409 4 0 192 -92 417 -204z m-3245 -201 l0 -205 -205 0 -205 0 0 205 0
205 205 0 205 0 0 -205z m10120 -220 l0 -415 -412 206 c-227 113 -415 208
-417 210 -3 3 809 413 822 413 4 1 7 -186 7 -414z m-8640 185 c11 -11 27 -20
35 -20 8 0 24 9 35 20 20 20 33 20 635 20 l615 0 0 -210 c0 -134 4 -210 10
-210 6 0 199 95 430 210 l420 210 192 0 c174 -1 195 -3 216 -19 l22 -19 0
-506 0 -506 -205 0 -205 0 0 105 0 105 -655 0 -655 0 0 -215 0 -215 -1175 0
-1175 0 0 110 0 110 -105 0 -105 0 0 420 0 420 105 0 105 0 0 105 0 105 720 0
c707 0 720 0 740 -20z m6700 -610 l0 -420 -850 0 -850 0 0 420 0 420 850 0
850 0 0 -420z m6260 215 l0 -205 -210 0 -210 0 0 205 0 205 210 0 210 0 0
-205z m-1330 -35 c11 -11 27 -20 35 -20 8 0 24 9 35 20 19 19 33 20 425 20
l405 0 0 -105 0 -105 95 0 95 0 0 -530 0 -530 -100 0 -100 0 0 -105 0 -105
-215 0 -215 0 0 -188 c0 -104 -3 -237 -7 -295 l-6 -107 -114 0 -113 0 0 35 c0
19 -4 35 -10 35 -6 0 -10 -33 -10 -80 0 -47 4 -80 10 -80 6 0 10 16 10 35 l0
35 129 0 130 0 -6 295 -6 295 211 0 212 0 0 -110 0 -110 100 0 100 0 0 -690 0
-690 -100 0 -100 0 0 -105 0 -105 -185 0 -186 0 -24 28 -24 27 -1 323 c0 274
2 323 15 328 22 9 29 43 11 63 -11 12 -16 44 -18 121 l-3 105 -42 3 c-40 3
-43 5 -43 33 0 16 -2 29 -5 29 -3 0 -32 -13 -65 -30 -81 -41 -100 -40 -100 5
0 19 -4 35 -10 35 -6 0 -10 -33 -10 -80 0 -47 4 -80 10 -80 6 0 10 14 10 30 0
38 22 39 90 5 27 -14 56 -25 65 -25 9 0 15 9 15 25 0 21 5 25 30 25 l30 0 0
-92 c0 -125 -3 -128 -132 -128 l-98 0 0 35 c0 19 -4 35 -10 35 -6 0 -10 -33
-10 -80 0 -47 4 -80 10 -80 6 0 10 16 10 35 l0 35 100 0 c152 0 140 30 140
-357 l0 -322 -25 -26 c-25 -24 -32 -25 -133 -25 -96 0 -108 2 -120 20 -7 11
-23 20 -37 20 -14 0 -33 -9 -42 -20 -17 -19 -30 -20 -461 -20 -379 0 -443 2
-448 15 -3 8 -14 17 -25 20 -18 6 -19 19 -19 238 l0 232 225 113 225 112 270
0 270 0 0 265 c0 170 -4 265 -10 265 -6 0 -10 -92 -10 -255 l0 -255 -255 0
-255 0 -230 115 -230 115 0 1165 0 1165 415 0 c402 0 416 -1 435 -20z m-4280
-515 l0 -325 225 0 225 0 420 -210 c231 -115 424 -210 430 -210 6 0 10 41 10
105 l0 105 205 0 205 0 0 -745 0 -745 -205 0 -205 0 0 430 0 430 -870 0 -870
0 0 -805 0 -805 -205 0 -205 0 0 805 0 805 -110 0 -110 0 0 530 0 530 215 0
215 0 0 215 0 215 315 0 315 0 0 -325z m-5170 -315 l0 -420 -635 0 -635 0 0
420 0 420 635 0 635 0 0 -420z m6458 -198 l-3 -209 -415 205 -415 204 415 208
415 208 3 -204 c1 -111 1 -297 0 -412z m-10118 203 l0 -205 -205 0 -205 0 0
205 0 205 205 0 205 0 0 -205z m2370 -230 l0 -215 325 0 325 0 0 -176 0 -176
-29 -29 -29 -29 -1471 0 -1471 0 0 110 0 110 -105 0 -105 0 0 205 0 205 105 0
105 0 0 105 0 105 1175 0 1175 0 0 -215z m3230 10 l0 -205 -745 0 -745 0 0
205 0 205 745 0 745 0 0 -205z m8830 -430 l0 -205 -207 2 -208 3 -3 203 -2
202 210 0 210 0 0 -205z m-14430 -210 l0 -205 -205 0 -205 0 0 205 0 205 205
0 205 0 0 -205z m7970 -1510 l0 -1495 -422 2 -423 3 -1 1493 -2 1492 424 0
424 0 0 -1495z m2150 -105 l0 -1600 -850 0 -850 0 0 1600 0 1600 850 0 850 0
0 -1600z m-6460 750 l0 -420 -850 0 -850 0 0 420 0 420 850 0 850 0 0 -420z
m9029 4 c3 -3 -814 -414 -824 -414 -3 0 -5 187 -5 415 l0 415 413 -206 c226
-113 414 -208 416 -210z m-6871 -216 l2 -528 -855 0 -855 0 0 530 0 530 853
-2 852 -3 3 -527z m-5818 217 l0 -205 -205 0 -205 0 0 205 0 205 205 0 205 0
0 -205z m1484 -39 l26 -23 0 -402 0 -401 1155 0 1155 0 0 -292 c0 -286 0 -292
-22 -315 -21 -22 -26 -23 -210 -23 l-188 0 -420 210 c-231 116 -427 210 -435
210 -12 0 -15 -18 -15 -105 l0 -105 -1255 0 -1255 0 0 110 0 110 -105 0 -105
0 0 420 0 420 105 0 105 0 0 105 0 105 719 0 720 0 25 -24z m9066 -315 l0
-340 -24 -25 -23 -26 -182 0 -181 0 0 365 0 365 205 0 205 0 0 -339z m1290
135 c0 -115 4 -207 9 -211 5 -3 94 35 197 85 103 49 189 90 190 90 2 0 4 -100
4 -222 -1 -203 -2 -225 -19 -245 l-19 -23 -791 0 -790 0 -26 25 -25 26 0 339
0 340 635 0 635 0 0 -204z m-4737 -323 c4 -174 7 -509 7 -745 l0 -428 -210 0
-210 0 -430 215 c-236 118 -432 215 -435 215 -3 0 -5 -47 -5 -105 l0 -105
-425 0 -425 0 0 365 0 365 430 0 430 0 0 270 0 270 633 0 634 0 6 -317z m7325
-210 l-3 -208 -205 0 -205 0 -3 195 c-1 107 0 200 2 207 4 10 53 13 211 13
l205 0 -2 -207z m-6028 -818 l0 -805 870 0 870 0 0 325 0 325 635 0 635 0 0
-209 c0 -122 4 -212 10 -216 5 -3 95 37 200 90 l190 95 0 -220 0 -219 -107 -4
c-60 -1 -7 -3 117 -3 124 0 177 2 118 3 l-108 4 0 224 0 225 233 116 232 116
315 -3 315 -4 3 263 c1 170 -1 262 -8 262 -6 0 -11 -93 -12 -252 l-3 -253
-307 -3 -308 -2 -230 115 -230 115 0 200 0 200 120 0 c73 0 120 4 120 10 0 6
-50 10 -130 10 l-130 0 0 -205 0 -205 -190 95 c-104 52 -194 95 -200 95 -6 0
-10 -77 -10 -215 l0 -215 -635 0 -635 0 0 475 0 475 183 0 c171 0 185 -1 202
-20 10 -11 26 -20 37 -20 10 0 26 9 35 20 17 20 30 20 810 20 780 0 793 0 813
-20 11 -11 28 -20 38 -20 11 0 27 9 37 20 18 19 31 20 458 20 439 0 441 0 464
-22 23 -21 23 -25 23 -230 l0 -208 -115 0 -115 0 0 29 c0 17 -4 33 -10 36 -6
4 -10 -23 -10 -74 0 -47 4 -81 10 -81 6 0 10 16 10 35 l0 35 125 0 125 0 0
216 0 217 26 23 c23 22 33 24 132 24 96 0 108 -2 120 -20 7 -11 23 -20 37 -20
14 0 30 9 37 20 12 19 24 20 200 20 l188 0 0 -105 0 -105 100 0 100 0 0 -960
0 -960 -100 0 -100 0 0 -105 0 -105 -185 0 c-172 0 -186 1 -205 20 -25 25 -45
25 -70 0 -18 -18 -34 -19 -207 -20 -325 -1 -293 -5 -293 30 0 17 -11 52 -24
78 -50 97 -137 151 -242 152 -138 0 -243 -80 -274 -210 l-12 -50 -529 0 -529
0 0 160 0 160 -655 0 -655 0 0 -545 0 -545 323 -2 322 -3 3 -203 2 -202 -36 0
c-25 0 -35 -4 -32 -13 3 -6 20 -56 37 -109 18 -54 34 -98 36 -98 2 0 18 44 36
98 17 53 34 102 36 109 3 7 -8 13 -29 15 l-33 3 0 200 0 200 323 3 322 2 0
105 0 105 1075 0 1075 0 0 243 0 242 29 28 29 27 181 0 181 0 0 -110 0 -110
100 0 100 0 0 -790 0 -790 -3000 0 -3000 0 0 100 0 100 -160 0 -160 0 0 325 0
325 -382 -2 -383 -3 -3 -142 -3 -143 -104 0 c-63 0 -105 -4 -105 -10 0 -6 78
-10 215 -10 131 0 215 4 215 10 0 5 -45 11 -102 12 l-103 3 -3 133 -3 132 371
0 370 0 0 -315 0 -315 -160 0 -160 0 0 -100 0 -100 -3865 0 -3865 0 2 737 3
738 103 3 102 3 0 104 0 105 1365 0 1364 0 26 -25 25 -26 0 -269 0 -270 129 0
130 0 4 -38 c2 -20 4 1 4 48 0 47 -2 68 -4 48 l-4 -38 -120 0 -119 0 0 263 c0
260 0 263 23 282 20 18 41 20 237 25 l215 5 22 43 c25 50 21 54 73 -76 18 -46
36 -80 41 -75 4 4 26 51 47 103 l40 95 17 -40 c9 -22 28 -68 42 -103 14 -35
29 -60 33 -55 5 4 26 51 48 103 40 94 41 95 52 65 28 -76 67 -159 77 -162 6
-2 19 19 29 47 l18 50 238 0 238 0 0 -501 0 -501 -29 -29 -29 -29 -404 0
c-222 0 -467 3 -545 7 l-143 6 -2 246 c-2 158 -7 245 -13 244 -6 -2 -10 -97
-10 -260 l0 -258 561 4 561 4 16 -23 c20 -29 66 -30 85 -1 14 21 21 21 311 23
l296 3 -293 2 -294 3 -29 29 -29 29 0 511 0 511 -246 0 -245 0 -20 -46 c-12
-25 -22 -44 -24 -42 -1 2 -19 44 -40 93 -20 50 -40 94 -44 98 -4 4 -25 -34
-46 -85 -21 -51 -41 -96 -45 -101 -3 -4 -24 36 -45 88 -21 53 -41 98 -45 100
-4 2 -17 -22 -30 -53 -13 -31 -32 -77 -43 -101 l-20 -45 -39 95 c-21 52 -42
97 -47 102 -4 4 -18 -18 -30 -48 l-23 -55 -212 0 c-199 0 -213 1 -229 20 -22
26 -51 26 -77 0 -20 -20 -33 -20 -1385 -20 l-1365 0 0 105 0 105 -105 0 -105
0 0 745 0 745 105 0 105 0 0 110 0 110 1255 0 1255 0 0 -210 0 -210 -215 0
-215 0 0 -215 0 -215 -190 0 -190 0 0 -105 0 -105 -290 0 c-187 0 -290 -4
-290 -10 0 -6 103 -10 290 -10 l290 0 0 -205 0 -205 -290 0 c-187 0 -290 -4
-290 -10 0 -6 103 -10 290 -10 l290 0 0 -105 0 -105 385 0 385 0 0 435 0 435
-185 0 -185 0 0 210 0 210 205 0 205 0 0 -110 c0 -60 2 -110 5 -110 3 0 199
97 435 215 l430 215 186 0 c251 0 234 18 234 -237 l0 -193 1000 0 1000 0 0
-105 c0 -58 2 -105 4 -105 2 0 201 97 442 215 l438 215 200 -2 201 -3 3 -212
2 -213 213 -2 212 -3 3 -152 3 -153 -326 0 -325 0 0 -440 0 -440 655 0 655 0
0 440 0 440 -322 2 -323 3 0 150 0 150 218 3 217 2 0 695 0 695 205 0 205 0 0
-805z m-8400 280 l0 -205 -205 0 -205 0 0 205 0 205 205 0 205 0 0 -205z
m2965 -7 c223 -112 405 -205 405 -208 0 -5 -805 -410 -815 -410 -3 0 -5 185
-5 410 0 226 2 410 5 410 3 0 187 -91 410 -202z m3694 -424 c3 -3 -814 -414
-824 -414 -3 0 -5 187 -5 415 l0 415 413 -206 c226 -113 414 -208 416 -210z
m5600 0 c4 -3 -206 -109 -566 -285 l-263 -128 0 415 0 414 413 -206 c226 -113
414 -208 416 -210z m-9784 -859 l0 -420 -367 -3 -368 -2 0 418 c0 230 3 422 7
425 4 4 169 6 367 5 l361 -3 0 -420z m5705 -325 l0 -420 -635 0 -635 0 0 420
0 420 635 0 635 0 0 -420z m3230 -430 l0 -530 -635 0 -635 0 0 530 0 530 635
0 635 0 0 -530z m1485 441 c88 -49 143 -157 130 -255 -18 -136 -137 -234 -272
-224 -150 11 -254 131 -240 278 17 189 215 294 382 201z m1535 -226 l0 -205
-207 2 -208 3 -3 203 -2 202 210 0 210 0 0 -205z m-14430 -105 l0 -210 -205 0
-205 0 0 210 0 210 205 0 205 0 0 -210z m12490 87 c0 -38 34 -118 66 -155 57
-67 123 -96 214 -97 86 0 135 21 195 80 43 43 64 83 73 138 l8 42 236 3 237 2
25 -25 26 -26 0 -234 0 -235 -1070 0 -1070 0 0 260 0 260 530 0 c432 0 530 -2
530 -13z m-4310 -1807 l0 -210 -312 2 -313 3 -3 195 c-1 107 0 200 2 207 4 10
73 13 316 13 l310 0 0 -210z"/>
<path d="M2875 9395 c-16 -13 -26 -27 -22 -31 3 -4 13 -1 22 6 13 11 15 4 15
-54 0 -52 3 -66 15 -66 12 0 15 16 15 85 0 47 -3 85 -7 85 -5 -1 -21 -12 -38
-25z"/>
<path d="M2986 9398 c-9 -12 -16 -41 -16 -63 0 -73 53 -111 93 -67 24 26 23
113 -1 135 -26 23 -58 21 -76 -5z m68 -14 c3 -9 6 -31 6 -49 0 -18 -3 -40 -6
-49 -8 -22 -41 -20 -54 3 -23 43 -5 111 29 111 11 0 22 -7 25 -16z"/>
<path d="M3331 9340 c-35 -89 -35 -90 -21 -90 6 0 15 11 20 25 8 20 16 25 45
25 29 0 37 -5 45 -25 5 -14 16 -25 24 -25 12 0 7 18 -19 81 -19 44 -35 83 -35
85 0 2 -6 4 -14 4 -9 0 -27 -32 -45 -80z m63 3 c6 -20 4 -23 -18 -23 -30 0
-29 -2 -15 40 12 34 19 30 33 -17z"/>
<path d="M11976 9378 c-9 -12 -16 -41 -16 -63 0 -73 53 -111 93 -67 24 26 23
113 -1 135 -26 23 -58 21 -76 -5z m68 -14 c3 -9 6 -31 6 -49 0 -18 -3 -40 -6
-49 -8 -22 -41 -20 -54 3 -23 43 -5 111 29 111 11 0 22 -7 25 -16z"/>
<path d="M12176 9378 c-9 -12 -16 -41 -16 -63 0 -52 23 -85 59 -85 36 0 51 17
51 56 0 40 -21 58 -60 50 -33 -6 -35 -4 -20 25 12 21 40 25 58 7 17 -17 28 -2
12 17 -19 23 -66 19 -84 -7z m69 -93 c0 -35 -31 -47 -51 -20 -18 25 0 57 29
53 17 -2 22 -10 22 -33z"/>
<path d="M12370 9350 c41 -105 50 -122 62 -118 18 6 79 168 63 168 -7 0 -22
-28 -35 -62 -12 -35 -25 -66 -29 -71 -4 -4 -17 24 -30 63 -14 43 -28 70 -36
70 -12 0 -11 -9 5 -50z"/>
<path d="M13192 9377 c-27 -29 -28 -41 -2 -27 19 10 20 8 20 -55 0 -37 4 -65
10 -65 6 0 10 35 10 85 0 47 -4 85 -8 85 -5 0 -18 -10 -30 -23z"/>
<path d="M13302 9388 c-14 -14 -16 -38 -3 -38 5 0 12 7 15 16 8 20 50 14 54
-8 2 -9 -17 -39 -42 -67 -26 -29 -46 -54 -46 -56 0 -3 25 -5 55 -5 30 0 55 5
55 10 0 6 -16 10 -36 10 l-35 0 35 44 c51 62 45 106 -14 106 -14 0 -31 -5 -38
-12z"/>
<path d="M13500 9386 c0 -7 -3 -27 -6 -43 -6 -30 -5 -30 33 -29 36 1 38 -1 38
-29 0 -36 -27 -45 -56 -19 -15 14 -19 14 -19 3 0 -42 69 -54 94 -17 9 12 16
30 16 39 0 23 -33 49 -62 49 -21 0 -25 4 -21 20 4 15 14 20 39 20 19 0 34 5
34 10 0 6 -20 10 -45 10 -32 0 -45 -4 -45 -14z"/>
<path d="M13626 9385 c-11 -31 -6 -54 15 -65 29 -16 51 5 47 44 -2 25 -8 32
-29 34 -17 2 -29 -3 -33 -13z m47 -14 c6 -24 -7 -46 -22 -37 -12 8 -15 39 -4
49 11 12 21 8 26 -12z"/>
<path d="M13699 9315 c-40 -88 -46 -106 -29 -89 19 19 89 174 79 174 -6 0 -28
-38 -50 -85z"/>
<path d="M12990 9345 c0 -18 -5 -25 -20 -25 -11 0 -20 -4 -20 -10 0 -5 9 -10
20 -10 13 0 20 -7 20 -20 0 -11 5 -20 10 -20 6 0 10 9 10 20 0 15 7 20 25 20
31 0 33 17 3 22 -15 2 -24 11 -26 26 -5 30 -22 28 -22 -3z"/>
<path d="M3180 9290 c0 -38 0 -72 0 -75 0 -3 3 -4 8 -3 4 0 6 9 4 20 -3 18 14
23 78 20 14 -1 19 1 13 4 -8 4 -13 25 -13 55 0 27 -4 49 -10 49 -5 0 -10 -20
-10 -44 0 -31 -5 -46 -16 -50 -26 -10 -34 2 -34 50 0 24 -4 44 -10 44 -6 0
-10 -30 -10 -70z"/>
<path d="M13730 9289 c-9 -16 -8 -26 5 -45 18 -28 28 -30 49 -8 17 16 20 33
10 58 -9 23 -51 20 -64 -5z m45 -19 c0 -27 -20 -38 -28 -15 -8 20 3 47 17 42
6 -2 11 -14 11 -27z"/>
<path d="M12527 9273 c-11 -10 -8 -133 3 -133 6 0 10 14 10 30 0 41 31 40 64
-2 30 -38 46 -32 20 8 -14 20 -15 29 -6 32 15 5 16 44 0 60 -13 13 -80 17 -91
5z m83 -33 c0 -16 -7 -20 -35 -20 -28 0 -35 4 -35 20 0 16 7 20 35 20 28 0 35
-4 35 -20z"/>
<path d="M12660 9210 l0 -70 50 0 c28 0 50 5 50 10 0 6 -18 10 -40 10 -33 0
-40 3 -40 20 0 16 7 20 34 20 19 0 38 5 41 10 4 6 -10 10 -34 10 -34 0 -41 3
-41 20 0 17 7 20 40 20 22 0 40 5 40 10 0 6 -22 10 -50 10 l-50 0 0 -70z"/>
<path d="M12790 9210 c0 -40 4 -70 10 -70 6 0 10 14 10 30 0 27 3 30 30 30 17
0 30 5 30 10 0 6 -13 10 -30 10 -23 0 -30 4 -30 20 0 16 7 20 35 20 19 0 35 5
35 10 0 6 -20 10 -45 10 l-45 0 0 -70z"/>
<path d="M12100 9240 c0 -5 7 -10 15 -10 8 0 15 5 15 10 0 6 -7 10 -15 10 -8
0 -15 -4 -15 -10z"/>
<path d="M13440 9240 c0 -5 5 -10 10 -10 6 0 10 5 10 10 0 6 -4 10 -10 10 -5
0 -10 -4 -10 -10z"/>
<path d="M8546 9184 c-9 -8 -16 -19 -16 -23 0 -18 28 -42 65 -54 52 -18 56
-50 8 -55 -24 -2 -35 2 -45 17 -15 24 -28 27 -28 7 0 -26 30 -46 69 -46 44 0
61 14 61 52 0 24 -6 29 -50 45 -34 12 -50 23 -48 33 4 21 52 25 68 6 14 -18
30 -21 30 -7 0 20 -33 41 -65 41 -18 0 -41 -7 -49 -16z"/>
<path d="M8706 9184 c-9 -8 -16 -19 -16 -23 0 -18 28 -42 65 -54 52 -18 56
-50 8 -55 -24 -2 -35 2 -45 17 -15 24 -28 27 -28 7 0 -26 30 -46 69 -46 44 0
61 14 61 52 0 24 -6 29 -50 45 -34 12 -50 23 -48 33 4 21 52 25 68 6 14 -18
30 -21 30 -7 0 20 -33 41 -65 41 -18 0 -41 -7 -49 -16z"/>
<path d="M14510 8905 l0 -85 46 0 c61 0 84 14 84 50 0 16 -5 32 -10 35 -7 4
-7 12 0 25 13 24 13 26 -6 44 -10 10 -33 16 -65 16 l-49 0 0 -85z m95 40 c0
-16 -8 -21 -37 -23 -35 -3 -38 -1 -38 23 0 24 3 26 38 23 29 -2 37 -7 37 -23z
m-1 -51 c9 -3 16 -14 16 -24 0 -21 -19 -30 -61 -30 -24 0 -29 4 -29 23 0 13 3
27 7 30 8 9 46 9 67 1z"/>
<path d="M14670 8905 c0 -69 3 -85 15 -85 10 0 15 11 15 35 0 33 2 35 35 35
22 0 43 8 55 20 24 24 24 29 4 58 -12 18 -25 22 -70 22 l-54 0 0 -85z m106 50
c9 -23 -15 -45 -47 -45 -26 0 -29 4 -29 30 0 28 3 30 35 30 23 0 38 -6 41 -15z"/>
<path d="M12840 8685 c0 -69 3 -85 15 -85 11 0 15 11 15 40 l0 40 40 0 c22 0
40 5 40 10 0 6 -18 10 -40 10 -36 0 -40 3 -40 25 0 23 4 25 45 25 25 0 45 5
45 10 0 6 -27 10 -60 10 l-60 0 0 -85z"/>
<path d="M12990 8686 l0 -86 48 0 c37 0 54 5 68 21 17 19 17 23 3 48 -12 20
-13 31 -5 44 19 30 -5 52 -63 55 l-51 3 0 -85z m93 52 c8 -25 -6 -38 -39 -38
-30 0 -34 3 -34 25 0 22 4 25 34 25 19 0 36 -6 39 -12z m2 -88 c0 -22 -5 -25
-37 -28 -36 -3 -38 -2 -38 28 0 30 2 31 38 28 32 -3 37 -6 37 -28z"/>
<path d="M11976 8088 c-9 -12 -16 -41 -16 -63 0 -73 53 -111 93 -67 24 26 23
113 -1 135 -26 23 -58 21 -76 -5z m68 -14 c3 -9 6 -31 6 -49 0 -18 -3 -40 -6
-49 -8 -22 -41 -20 -54 3 -23 43 -5 111 29 111 11 0 22 -7 25 -16z"/>
<path d="M12176 8088 c-9 -12 -16 -41 -16 -63 0 -52 23 -85 59 -85 36 0 51 17
51 56 0 40 -21 58 -60 50 -33 -6 -35 -4 -20 25 12 21 40 25 58 7 17 -17 28 -2
12 17 -19 23 -66 19 -84 -7z m69 -93 c0 -35 -31 -47 -51 -20 -18 25 0 57 29
53 17 -2 22 -10 22 -33z"/>
<path d="M12370 8060 c41 -105 50 -122 62 -118 18 6 79 168 63 168 -7 0 -22
-28 -35 -62 -12 -35 -25 -66 -29 -71 -4 -4 -17 24 -30 63 -14 43 -28 70 -36
70 -12 0 -11 -9 5 -50z"/>
<path d="M13183 8087 c-28 -28 -30 -41 -3 -27 19 10 20 8 20 -55 0 -37 4 -65
10 -65 6 0 10 35 10 85 0 47 -3 85 -7 84 -5 0 -18 -10 -30 -22z"/>
<path d="M13292 8098 c-14 -14 -16 -38 -3 -38 5 0 11 7 15 15 3 8 17 15 31 15
38 0 33 -38 -11 -81 -20 -18 -40 -42 -45 -51 -9 -16 -4 -18 46 -18 30 0 55 5
55 10 0 6 -16 10 -36 10 l-36 0 36 42 c52 60 45 108 -14 108 -14 0 -31 -5 -38
-12z"/>
<path d="M13497 8103 c-2 -5 -7 -25 -11 -46 l-7 -37 39 6 c32 5 40 3 46 -11
17 -46 -39 -79 -63 -38 -5 10 -13 14 -17 10 -14 -14 12 -42 40 -45 32 -4 66
22 66 50 0 36 -19 58 -50 58 -23 0 -30 4 -30 20 0 16 7 20 35 20 19 0 35 5 35
10 0 12 -77 14 -83 3z"/>
<path d="M13621 8092 c-6 -10 -8 -28 -5 -40 11 -40 60 -38 70 4 12 45 -44 75
-65 36z m47 -16 c2 -10 -1 -23 -7 -29 -16 -16 -34 6 -26 33 8 24 28 22 33 -4z"/>
<path d="M13706 8032 c-46 -79 -62 -125 -27 -81 24 31 84 150 78 155 -3 3 -25
-31 -51 -74z"/>
<path d="M13736 8004 c-10 -25 -7 -42 10 -58 21 -22 31 -20 49 8 13 19 14 29
5 45 -13 25 -55 28 -64 5z m48 -9 c7 -18 -2 -45 -15 -45 -5 0 -12 7 -15 15 -7
18 2 45 15 45 5 0 11 -7 15 -15z"/>
<path d="M13000 8000 c0 -6 28 -10 65 -10 37 0 65 4 65 10 0 6 -28 10 -65 10
-37 0 -65 -4 -65 -10z"/>
<path d="M12527 7983 c-11 -10 -8 -133 3 -133 6 0 10 14 10 30 0 41 31 40 64
-2 30 -38 46 -32 20 8 -14 20 -15 29 -6 32 15 5 16 44 0 60 -13 13 -80 17 -91
5z m83 -33 c0 -16 -7 -20 -35 -20 -28 0 -35 4 -35 20 0 16 7 20 35 20 28 0 35
-4 35 -20z"/>
<path d="M12660 7920 l0 -70 50 0 c28 0 50 5 50 10 0 6 -18 10 -40 10 -33 0
-40 3 -40 20 0 16 7 20 34 20 19 0 38 5 41 10 4 6 -10 10 -34 10 -34 0 -41 3
-41 20 0 17 7 20 40 20 22 0 40 5 40 10 0 6 -22 10 -50 10 l-50 0 0 -70z"/>
<path d="M12790 7920 c0 -40 4 -70 10 -70 6 0 10 14 10 30 0 27 3 30 30 30 17
0 30 5 30 10 0 6 -13 10 -30 10 -23 0 -30 4 -30 20 0 16 7 20 35 20 19 0 35 5
35 10 0 6 -20 10 -45 10 l-45 0 0 -70z"/>
<path d="M12100 7950 c0 -5 7 -10 15 -10 8 0 15 5 15 10 0 6 -7 10 -15 10 -8
0 -15 -4 -15 -10z"/>
<path d="M13430 7950 c0 -5 5 -10 10 -10 6 0 10 5 10 10 0 6 -4 10 -10 10 -5
0 -10 -4 -10 -10z"/>
<path d="M12320 7250 c-51 -51 -13 -150 57 -150 72 0 108 85 62 144 -26 33
-88 37 -119 6z m98 -12 c7 -7 12 -30 12 -53 0 -23 -5 -46 -12 -53 -17 -17 -58
-15 -80 5 -22 20 -24 76 -2 97 18 19 65 21 82 4z"/>
<path d="M12504 7249 c-12 -14 -19 -36 -19 -64 0 -56 25 -85 75 -85 36 0 70
23 70 48 0 18 -14 14 -28 -8 -14 -22 -61 -27 -80 -8 -7 7 -12 30 -12 53 0 23
5 46 12 53 17 17 58 15 80 -5 25 -22 36 -8 13 17 -25 28 -86 27 -111 -1z"/>
<path d="M11460 9580 c0 -25 -4 -30 -25 -30 -14 0 -25 -4 -25 -10 0 -5 11 -10
25 -10 21 0 25 -5 25 -31 0 -38 24 -35 28 4 3 21 9 27 28 27 13 0 24 5 24 10
0 6 -11 10 -25 10 -21 0 -25 5 -25 30 0 20 -5 30 -15 30 -10 0 -15 -10 -15
-30z"/>
<path d="M11400 9105 c0 -12 14 -15 70 -15 56 0 70 3 70 15 0 12 -14 15 -70
15 -56 0 -70 -3 -70 -15z"/>
<path d="M6432 9188 c-30 -30 -10 -59 54 -82 46 -16 57 -42 20 -52 -32 -8 -66
3 -66 22 0 8 -4 14 -10 14 -18 0 -11 -39 9 -50 48 -25 111 -2 111 39 0 24 -17
37 -66 53 -47 16 -52 41 -9 46 19 3 33 -2 42 -14 16 -22 31 -9 17 14 -13 21
-84 28 -102 10z"/>
<path d="M6716 9170 c-8 -16 -10 -30 -5 -30 5 0 9 -25 9 -55 0 -30 5 -55 10
-55 6 0 10 25 10 55 0 48 3 55 19 55 17 0 20 -8 23 -52 3 -46 6 -53 26 -56 25
-4 30 13 7 22 -21 8 -20 72 1 84 15 8 15 10 0 15 -9 4 -16 13 -16 22 0 8 -4
15 -10 15 -5 0 -10 -9 -10 -20 0 -13 -7 -20 -20 -20 -11 0 -20 7 -20 15 0 8 7
15 15 15 8 0 15 5 15 10 0 23 -39 8 -54 -20z"/>
<path d="M6922 9188 c-30 -30 -10 -59 54 -82 46 -16 57 -42 20 -52 -32 -8 -66
3 -66 22 0 8 -4 14 -10 14 -18 0 -11 -39 9 -50 48 -25 111 -2 111 39 0 24 -17
37 -66 53 -47 16 -52 41 -9 46 19 3 33 -2 42 -14 16 -22 31 -9 17 14 -13 21
-84 28 -102 10z"/>
<path d="M7069 9168 c-2 -13 -2 -48 1 -78 4 -48 8 -55 28 -58 25 -4 30 13 7
22 -21 8 -20 75 1 83 15 5 15 7 0 15 -9 5 -16 16 -16 23 0 24 -17 17 -21 -7z"/>
<path d="M7350 9170 c0 -13 -6 -19 -17 -18 -60 5 -63 2 -63 -62 0 -33 4 -60
10 -60 6 0 10 20 10 45 0 40 3 47 26 55 14 6 27 10 29 10 2 0 5 -24 7 -52 3
-46 6 -53 26 -56 25 -4 30 13 7 22 -21 8 -20 75 1 83 15 5 15 7 0 15 -9 5 -16
16 -16 23 0 8 -4 15 -10 15 -5 0 -10 -9 -10 -20z"/>
<path d="M6603 9150 c-53 -22 -35 -112 24 -118 55 -6 84 67 43 108 -22 22 -33
23 -67 10z m43 -18 c32 -22 20 -82 -16 -82 -18 0 -40 27 -40 49 0 11 28 41 38
41 4 0 12 -4 18 -8z"/>
<path d="M7149 9140 c-18 -14 -20 -19 -8 -20 8 0 20 5 26 11 13 13 43 5 43
-10 0 -6 -14 -14 -32 -19 -36 -9 -54 -32 -45 -56 5 -12 18 -16 57 -14 l50 2 0
47 c0 74 -42 101 -91 59z m61 -65 c0 -17 -29 -34 -47 -28 -20 7 -15 23 10 33
31 13 37 12 37 -5z"/>
<path d="M3725 9154 c-44 -25 -81 -47 -83 -49 -3 -3 153 -95 162 -95 3 0 6 19
8 43 l3 42 95 6 95 5 -97 2 -97 2 -3 45 -3 45 -80 -46z"/>
<path d="M10862 8758 c-30 -30 -10 -59 54 -82 46 -16 57 -42 20 -52 -32 -8
-66 3 -66 22 0 8 -4 14 -10 14 -18 0 -11 -39 9 -50 48 -25 111 -2 111 39 0 24
-17 37 -66 53 -47 16 -52 41 -9 46 19 3 33 -2 42 -14 16 -22 31 -9 17 14 -13
21 -84 28 -102 10z"/>
<path d="M11021 8756 c-25 -29 -9 -59 39 -76 33 -11 45 -21 45 -35 0 -30 -60
-34 -75 -6 -12 24 -30 28 -30 8 0 -44 92 -64 125 -27 26 29 9 59 -45 79 -52
19 -60 44 -15 49 19 3 33 -2 42 -14 16 -22 31 -9 17 14 -15 23 -86 28 -103 8z"/>
<path d="M5796 8114 c-9 -8 -16 -19 -16 -23 0 -18 28 -42 65 -54 52 -18 56
-50 8 -55 -24 -2 -35 2 -45 17 -15 24 -28 27 -28 7 0 -26 30 -46 69 -46 44 0
61 14 61 52 0 24 -6 29 -50 45 -34 12 -50 23 -48 33 4 21 52 25 68 6 14 -18
30 -21 30 -7 0 20 -33 41 -65 41 -18 0 -41 -7 -49 -16z"/>
<path d="M5950 8045 l0 -85 44 0 c63 0 91 25 91 83 0 63 -24 87 -87 87 l-48 0
0 -85z m98 53 c17 -17 15 -84 -4 -102 -8 -9 -29 -16 -45 -16 l-29 0 0 65 0 65
33 0 c18 0 38 -5 45 -12z"/>
<path d="M6634 7679 c-12 -14 -19 -36 -19 -64 0 -56 25 -85 75 -85 36 0 70 23
70 48 0 18 -14 14 -28 -8 -14 -22 -61 -27 -80 -8 -7 7 -12 30 -12 53 0 23 5
46 12 53 17 17 58 15 80 -5 25 -22 36 -8 13 17 -25 28 -86 27 -111 -1z"/>
<path d="M6790 7615 c0 -50 4 -85 10 -85 6 0 10 35 10 85 0 50 -4 85 -10 85
-6 0 -10 -35 -10 -85z"/>
<path d="M7100 7615 c0 -50 4 -85 10 -85 6 0 10 11 10 24 0 37 17 40 36 6 10
-16 24 -30 32 -30 14 0 7 17 -22 55 -13 18 -13 22 6 43 28 29 3 30 -29 0 l-23
-21 0 46 c0 26 -4 47 -10 47 -6 0 -10 -35 -10 -85z"/>
<path d="M6859 7642 c-25 -21 -30 -71 -9 -96 16 -21 64 -20 84 0 24 24 20 80
-6 98 -29 21 -41 20 -69 -2z m64 -23 c5 -9 7 -28 3 -43 -5 -22 -11 -27 -34
-24 -21 2 -28 9 -30 31 -6 50 37 75 61 36z"/>
<path d="M6998 7650 c-25 -15 -33 -66 -14 -95 19 -29 66 -34 86 -10 17 21 7
29 -18 14 -30 -19 -52 -5 -52 35 0 36 24 56 44 36 5 -5 17 -10 25 -10 11 0 10
4 -4 20 -20 22 -41 25 -67 10z"/>
<path d="M7616 6988 c-9 -12 -16 -41 -16 -63 0 -73 53 -111 93 -67 24 26 23
113 -1 135 -26 23 -58 21 -76 -5z m68 -14 c3 -9 6 -31 6 -49 0 -18 -3 -40 -6
-49 -8 -22 -41 -20 -54 3 -23 43 -5 111 29 111 11 0 22 -7 25 -16z"/>
<path d="M7816 6988 c-9 -12 -16 -41 -16 -63 0 -52 23 -85 59 -85 36 0 51 17
51 56 0 40 -21 58 -60 50 -33 -6 -35 -4 -20 25 12 21 40 25 58 7 17 -17 28 -2
12 17 -19 23 -66 19 -84 -7z m69 -93 c0 -35 -31 -47 -51 -20 -18 25 0 57 29
53 17 -2 22 -10 22 -33z"/>
<path d="M7740 6850 c0 -5 7 -10 15 -10 8 0 15 5 15 10 0 6 -7 10 -15 10 -8 0
-15 -4 -15 -10z"/>
<path d="M7610 6630 c41 -105 50 -122 62 -118 18 6 79 168 63 168 -7 0 -22
-28 -35 -62 -12 -35 -25 -66 -29 -71 -4 -4 -17 24 -30 63 -14 43 -28 70 -36
70 -12 0 -11 -9 5 -50z"/>
<path d="M7767 6543 c-11 -10 -8 -133 3 -133 6 0 10 14 10 30 0 41 31 40 64
-2 30 -38 46 -32 20 8 -14 20 -15 29 -6 32 15 5 16 44 0 60 -13 13 -80 17 -91
5z m83 -33 c0 -16 -7 -20 -35 -20 -28 0 -35 4 -35 20 0 16 7 20 35 20 28 0 35
-4 35 -20z"/>
<path d="M7900 6480 l0 -70 50 0 c28 0 50 5 50 10 0 6 -18 10 -40 10 -33 0
-40 3 -40 20 0 16 7 20 34 20 19 0 38 5 41 10 4 6 -10 10 -34 10 -34 0 -41 3
-41 20 0 17 7 20 40 20 22 0 40 5 40 10 0 6 -22 10 -50 10 l-50 0 0 -70z"/>
<path d="M8030 6482 c0 -55 -4 -71 -20 -85 -11 -9 -20 -20 -20 -25 0 -19 28
-43 65 -55 52 -18 56 -50 8 -55 -24 -2 -35 2 -45 17 -15 24 -28 27 -28 7 0
-26 30 -46 69 -46 44 0 61 14 61 52 0 24 -6 29 -50 45 -34 12 -50 23 -48 33 5
22 47 24 69 4 21 -19 33 -15 23 9 -3 9 -19 20 -35 26 -22 7 -29 16 -29 35 0
22 5 26 30 26 17 0 30 5 30 10 0 6 -13 10 -30 10 -23 0 -30 4 -30 20 0 17 7
20 41 20 24 0 38 4 34 10 -3 6 -26 10 -51 10 l-44 0 0 -68z"/>
<path d="M8160 6325 l0 -85 44 0 c63 0 91 25 91 83 0 63 -24 87 -87 87 l-48 0
0 -85z m98 53 c17 -17 15 -84 -4 -102 -8 -9 -29 -16 -45 -16 l-29 0 0 65 0 65
33 0 c18 0 38 -5 45 -12z"/>
<path d="M5730 6105 l0 -85 46 0 c61 0 84 14 84 50 0 16 -5 32 -10 35 -7 4 -7
12 0 25 13 24 13 26 -6 44 -10 10 -33 16 -65 16 l-49 0 0 -85z m95 40 c0 -15
-8 -21 -32 -23 -30 -3 -33 -1 -33 23 0 24 3 26 33 23 24 -2 32 -8 32 -23z m-1
-51 c9 -3 16 -14 16 -24 0 -20 -19 -30 -56 -30 -20 0 -24 5 -24 30 0 25 4 30
24 30 13 0 31 -3 40 -6z"/>
<path d="M5900 6105 c0 -50 4 -85 10 -85 6 0 10 16 10 35 0 34 1 35 40 35 31
0 43 5 56 25 15 23 15 27 0 50 -14 21 -24 25 -66 25 l-50 0 0 -85z m95 35 c0
-22 -5 -25 -37 -28 -36 -3 -38 -2 -38 28 0 30 2 31 38 28 32 -3 37 -6 37 -28z"/>
<path d="M7597 5774 c-4 -4 -7 -76 -7 -161 l0 -153 -45 0 c-25 0 -45 -5 -45
-11 0 -6 21 -9 53 -7 l52 3 3 158 c2 148 4 157 22 157 18 0 20 -9 22 -157 l3
-158 140 0 140 0 3 158 c2 129 5 157 17 157 12 0 15 -28 17 -157 l3 -158 140
0 140 0 3 158 c2 129 5 157 17 157 12 0 15 -28 17 -157 l3 -158 58 -3 c35 -2
57 1 57 8 0 5 -22 10 -50 10 l-49 0 -3 158 -3 157 -30 0 -30 0 -3 -157 -3
-158 -124 0 -124 0 -3 158 -3 157 -30 0 -30 0 -3 -157 -3 -158 -124 0 -124 0
-3 158 -3 157 -30 3 c-17 2 -34 0 -38 -4z"/>
<path d="M7711 5304 c-45 -57 -12 -144 55 -144 33 0 74 28 74 50 0 16 -14 12
-33 -10 -34 -40 -97 -11 -97 45 0 54 75 90 99 48 5 -10 13 -14 17 -10 17 17
-14 42 -53 45 -34 3 -44 -1 -62 -24z"/>
<path d="M7870 5245 c0 -50 4 -85 10 -85 6 0 10 35 10 85 0 50 -4 85 -10 85
-6 0 -10 -35 -10 -85z"/>
<path d="M8180 5245 c0 -50 4 -85 10 -85 6 0 10 14 10 30 0 17 4 30 8 30 4 0
16 -13 25 -30 10 -16 25 -30 33 -30 11 0 9 9 -10 37 l-26 37 22 23 c28 30 3
31 -29 1 l-23 -21 0 46 c0 26 -4 47 -10 47 -6 0 -10 -35 -10 -85z"/>
<path d="M7943 5280 c-53 -22 -35 -112 24 -118 55 -6 84 67 43 108 -22 22 -33
23 -67 10z m43 -18 c32 -22 20 -82 -16 -82 -18 0 -40 27 -40 49 0 11 28 41 38
41 4 0 12 -4 18 -8z"/>
<path d="M8070 5270 c-39 -39 -17 -110 35 -110 29 0 65 32 44 39 -7 2 -15 -1
-17 -7 -2 -7 -14 -12 -28 -12 -28 0 -42 37 -24 69 12 23 30 27 48 9 6 -6 15
-8 19 -4 9 9 -24 36 -44 36 -7 0 -22 -9 -33 -20z"/>
<path d="M11460 8290 c0 -25 -4 -30 -25 -30 -14 0 -25 -4 -25 -10 0 -5 11 -10
25 -10 21 0 25 -5 25 -31 0 -38 24 -35 28 4 3 21 9 27 28 27 13 0 24 5 24 10
0 6 -11 10 -25 10 -21 0 -25 5 -25 30 0 20 -5 30 -15 30 -10 0 -15 -10 -15
-30z"/>
<path d="M11400 7815 c0 -12 14 -15 70 -15 56 0 70 3 70 15 0 12 -14 15 -70
15 -56 0 -70 -3 -70 -15z"/>
<path d="M8590 7755 c0 -69 3 -85 15 -85 11 0 15 11 15 40 l0 40 40 0 c22 0
40 5 40 10 0 6 -18 10 -40 10 -36 0 -40 3 -40 25 0 23 4 25 45 25 25 0 45 5
45 10 0 6 -27 10 -60 10 l-60 0 0 -85z"/>
<path d="M9000 7755 c0 -50 4 -85 10 -85 6 0 10 35 10 85 0 50 -4 85 -10 85
-6 0 -10 -35 -10 -85z"/>
<path d="M9060 7811 c0 -11 -6 -22 -12 -24 -10 -4 -10 -6 0 -6 8 -1 12 -18 12
-51 0 -36 4 -52 15 -57 9 -3 19 -2 23 2 4 4 1 10 -5 12 -15 5 -18 93 -4 93 5
0 4 11 -2 25 -14 30 -27 32 -27 6z"/>
<path d="M8749 7780 c-18 -14 -20 -19 -8 -20 8 0 20 5 26 11 13 13 43 5 43
-10 0 -6 -14 -14 -32 -19 -36 -9 -54 -32 -45 -56 5 -12 18 -16 57 -14 l50 2 0
47 c0 74 -42 101 -91 59z m61 -65 c0 -17 -29 -34 -47 -28 -20 7 -15 23 10 33
31 13 37 12 37 -5z"/>
<path d="M8872 7733 l3 -58 48 -1 47 -2 0 59 c0 33 -4 59 -10 59 -5 0 -10 -17
-10 -37 0 -47 -12 -66 -36 -61 -15 2 -20 14 -22 51 -2 26 -8 47 -13 47 -6 0
-9 -24 -7 -57z"/>
<path d="M8354 7529 c-12 -14 -19 -36 -19 -64 0 -56 25 -85 75 -85 36 0 70 23
70 48 0 18 -14 14 -28 -8 -14 -22 -61 -27 -80 -8 -7 7 -12 30 -12 53 0 23 5
46 12 53 17 17 58 15 80 -5 25 -22 36 -8 13 17 -25 28 -86 27 -111 -1z"/>
<path d="M9060 7465 c0 -50 4 -85 10 -85 6 0 10 35 10 85 0 50 -4 85 -10 85
-6 0 -10 -35 -10 -85z"/>
<path d="M9110 7465 c0 -50 4 -85 10 -85 6 0 10 35 10 85 0 50 -4 85 -10 85
-6 0 -10 -35 -10 -85z"/>
<path d="M8780 7521 c0 -11 -6 -22 -12 -24 -10 -4 -10 -6 0 -6 8 -1 12 -18 12
-51 0 -36 4 -52 15 -57 9 -3 19 -2 23 2 4 4 1 10 -5 12 -15 5 -18 93 -4 93 5
0 4 11 -2 25 -14 30 -27 32 -27 6z"/>
<path d="M8533 7500 c-53 -22 -35 -112 24 -118 55 -6 84 67 43 108 -22 22 -33
23 -67 10z m43 -18 c32 -22 20 -82 -16 -82 -18 0 -40 27 -40 49 0 11 28 41 38
41 4 0 12 -4 18 -8z"/>
<path d="M8681 7501 c-8 -5 -20 -7 -28 -4 -10 4 -13 -9 -13 -56 0 -34 4 -61
10 -61 6 0 10 17 10 38 0 46 20 78 44 69 12 -5 16 -19 16 -57 0 -27 5 -50 10
-50 6 0 10 25 10 55 0 43 -4 56 -19 65 -23 12 -22 12 -40 1z"/>
<path d="M8863 7503 c-21 -4 -23 -10 -23 -64 0 -33 4 -59 10 -59 6 0 10 17 10
38 0 42 7 56 33 65 17 6 15 29 -1 26 -4 -1 -17 -4 -29 -6z"/>
<path d="M8939 7492 c-25 -21 -30 -71 -9 -96 16 -21 64 -20 84 0 24 24 20 80
-6 98 -29 21 -41 20 -69 -2z m64 -23 c5 -9 7 -28 3 -43 -5 -22 -11 -27 -34
-24 -21 2 -28 9 -30 31 -6 50 37 75 61 36z"/>
<path d="M9182 7494 c-25 -17 -31 -81 -10 -102 24 -24 98 -9 98 20 0 4 -7 8
-15 8 -8 0 -15 -5 -15 -11 0 -18 -55 -6 -58 14 -3 14 4 17 42 17 52 0 60 16
26 50 -24 24 -38 25 -68 4z m57 -17 c14 -18 4 -27 -31 -27 -30 0 -35 9 -16 28
16 16 33 15 47 -1z"/>
<path d="M9318 7503 c-15 -4 -18 -16 -18 -64 0 -33 4 -59 10 -59 6 0 10 23 10
50 0 44 3 50 21 50 11 0 19 5 17 12 -5 14 -17 17 -40 11z"/>
<path d="M4377 7172 c-22 -25 -23 -115 -1 -136 34 -34 94 -9 94 39 0 34 -28
58 -62 53 -30 -5 -37 9 -16 30 15 15 45 16 50 1 2 -7 10 -10 17 -8 11 4 10 9
-3 22 -23 22 -59 22 -79 -1z m63 -77 c18 -21 3 -55 -25 -55 -15 0 -26 7 -30
20 -7 23 10 50 30 50 7 0 18 -7 25 -15z"/>
<path d="M4580 7140 c41 -105 50 -122 62 -118 18 6 79 168 63 168 -7 0 -22
-28 -35 -62 -12 -35 -25 -66 -29 -71 -4 -4 -17 24 -30 63 -14 43 -28 70 -36
70 -12 0 -11 -9 5 -50z"/>
<path d="M4490 7080 c0 -5 14 -10 30 -10 17 0 30 5 30 10 0 6 -13 10 -30 10
-16 0 -30 -4 -30 -10z"/>
<path d="M4030 6825 c0 -50 4 -85 10 -85 6 0 10 15 10 34 0 19 4 37 8 40 18
11 53 -8 73 -40 29 -48 56 -46 28 1 -12 19 -26 35 -32 35 -7 0 -3 6 8 12 66
37 37 88 -51 88 l-54 0 0 -85z m105 40 c0 -16 -8 -21 -42 -23 -40 -3 -43 -2
-43 23 0 25 3 26 43 23 34 -2 42 -7 42 -23z"/>
<path d="M4600 6825 c0 -50 4 -85 10 -85 6 0 10 35 10 85 0 50 -4 85 -10 85
-6 0 -10 -35 -10 -85z"/>
<path d="M4789 6878 c-2 -13 -2 -48 1 -78 4 -48 8 -55 28 -58 25 -4 30 13 7
22 -21 8 -20 75 1 83 15 5 15 7 0 15 -9 5 -16 16 -16 23 0 24 -17 17 -21 -7z"/>
<path d="M4222 6854 c-25 -17 -31 -81 -10 -102 24 -24 98 -9 98 20 0 4 -7 8
-15 8 -8 0 -15 -5 -15 -11 0 -18 -55 -6 -58 14 -3 14 4 17 42 17 52 0 60 16
26 50 -24 24 -38 25 -68 4z m57 -17 c14 -18 4 -27 -31 -27 -30 0 -35 9 -16 28
16 16 33 15 47 -1z"/>
<path d="M4353 6855 c-16 -11 -23 -26 -23 -50 0 -44 25 -69 62 -61 26 5 28 4
18 -14 -12 -22 -40 -26 -58 -8 -17 17 -28 2 -12 -17 17 -21 63 -19 83 3 21 23
25 152 5 152 -7 0 -22 3 -33 6 -11 2 -30 -2 -42 -11z m61 -38 c8 -22 6 -31 -7
-44 -33 -34 -77 26 -46 63 18 22 42 13 53 -19z"/>
<path d="M4669 6850 c-18 -14 -20 -19 -8 -20 8 0 20 5 26 11 13 13 43 5 43
-10 0 -6 -14 -14 -32 -19 -36 -9 -54 -32 -45 -56 5 -12 18 -16 57 -14 l50 2 0
47 c0 74 -42 101 -91 59z m61 -65 c0 -17 -29 -34 -47 -28 -20 7 -15 23 10 33
31 13 37 12 37 -5z"/>
<path d="M4872 6854 c-26 -18 -30 -74 -6 -98 18 -19 65 -21 82 -4 21 21 15 85
-10 102 -12 9 -27 16 -33 16 -6 0 -21 -7 -33 -16z m57 -18 c7 -8 11 -27 9 -43
-2 -21 -9 -29 -27 -31 -13 -2 -28 2 -32 10 -29 45 17 104 50 64z"/>
<path d="M5013 6863 c-21 -4 -23 -10 -23 -64 0 -33 4 -59 10 -59 6 0 10 20 10
45 0 40 3 47 26 55 14 6 22 14 19 20 -3 5 -9 9 -13 9 -4 -1 -17 -4 -29 -6z"/>
<path d="M4472 6803 l3 -58 48 -1 47 -2 0 59 c0 33 -4 59 -10 59 -5 0 -10 -17
-10 -37 0 -47 -12 -66 -36 -61 -15 2 -20 14 -22 51 -2 26 -8 47 -13 47 -6 0
-9 -24 -7 -57z"/>
<path d="M11460 7220 c0 -25 -4 -30 -25 -30 -14 0 -25 -4 -25 -10 0 -5 11 -10
25 -10 21 0 25 -5 25 -31 0 -38 24 -35 28 4 3 21 9 27 28 27 13 0 24 5 24 10
0 6 -11 10 -25 10 -21 0 -25 5 -25 30 0 20 -5 30 -15 30 -10 0 -15 -10 -15
-30z"/>
<path d="M11400 6735 c0 -12 14 -15 70 -15 56 0 70 3 70 15 0 12 -14 15 -70
15 -56 0 -70 -3 -70 -15z"/>
<path d="M5770 6755 c0 -50 4 -85 10 -85 6 0 10 15 10 34 0 19 4 37 8 40 18
11 53 -8 73 -40 29 -48 56 -46 28 1 -12 19 -26 35 -32 35 -7 0 -3 6 8 12 66
37 37 88 -51 88 l-54 0 0 -85z m105 40 c0 -16 -8 -21 -42 -23 -40 -3 -43 -2
-43 23 0 25 3 26 43 23 34 -2 42 -7 42 -23z"/>
<path d="M6076 6810 c-8 -16 -10 -30 -5 -30 5 0 9 -25 9 -55 0 -30 5 -55 10
-55 6 0 10 24 10 54 0 34 5 56 13 59 10 4 10 6 0 6 -18 1 -16 31 2 31 8 0 15
5 15 10 0 23 -39 8 -54 -20z"/>
<path d="M5958 6790 c-47 -29 -24 -120 31 -120 29 0 60 25 47 37 -4 4 -11 2
-15 -6 -11 -18 -55 -10 -59 12 -3 14 4 17 43 17 43 0 46 1 40 23 -4 12 -10 25
-14 29 -12 13 -56 18 -73 8z m60 -33 c3 -13 -3 -17 -27 -17 -20 0 -31 5 -31
14 0 29 53 32 58 3z"/>
<path d="M6158 6790 c-47 -29 -24 -120 31 -120 29 0 60 25 47 37 -4 4 -11 2
-15 -6 -11 -18 -55 -10 -59 12 -3 14 4 17 43 17 43 0 46 1 40 23 -4 12 -10 25
-14 29 -12 13 -56 18 -73 8z m60 -33 c3 -13 -3 -17 -27 -17 -20 0 -31 5 -31
14 0 29 53 32 58 3z"/>
<path d="M6293 6793 c-21 -4 -23 -10 -23 -64 0 -33 4 -59 10 -59 6 0 10 17 10
38 0 42 7 56 33 65 17 6 15 29 -1 26 -4 -1 -17 -4 -29 -6z"/>
<path d="M6372 6784 c-25 -17 -31 -81 -10 -102 24 -24 98 -9 98 20 0 4 -7 8
-15 8 -8 0 -15 -5 -15 -11 0 -18 -55 -6 -58 14 -3 14 4 17 42 17 52 0 60 16
26 50 -24 24 -38 25 -68 4z m57 -17 c14 -18 4 -27 -31 -27 -30 0 -35 9 -16 28
16 16 33 15 47 -1z"/>
<path d="M6513 6793 c-21 -4 -23 -10 -23 -64 0 -33 4 -59 10 -59 6 0 10 22 10
49 0 37 4 50 17 55 24 10 43 -19 43 -66 0 -21 5 -38 10 -38 17 0 12 97 -6 114
-16 16 -21 17 -61 9z"/>
<path d="M6638 6790 c-25 -15 -33 -66 -14 -95 19 -29 66 -34 86 -10 17 21 7
29 -18 14 -30 -19 -52 -5 -52 35 0 36 24 56 44 36 5 -5 17 -10 25 -10 11 0 10
4 -4 20 -20 22 -41 25 -67 10z"/>
<path d="M6758 6790 c-47 -29 -24 -120 31 -120 29 0 60 25 47 37 -4 4 -11 2
-15 -6 -11 -18 -55 -10 -59 12 -3 14 4 17 43 17 43 0 46 1 40 23 -4 12 -10 25
-14 29 -12 13 -56 18 -73 8z m60 -33 c3 -13 -3 -17 -27 -17 -20 0 -31 5 -31
14 0 29 53 32 58 3z"/>
<path d="M6886 6787 c-27 -20 -16 -50 22 -61 17 -5 32 -15 32 -22 0 -18 -47
-18 -53 -1 -2 6 -8 9 -12 5 -17 -16 5 -38 38 -38 68 0 74 55 8 74 -17 5 -31
13 -31 18 0 15 30 21 45 8 9 -7 19 -10 23 -6 8 8 -25 36 -43 36 -6 0 -19 -6
-29 -13z"/>
<path d="M8780 4745 c0 -69 3 -85 15 -85 10 0 15 11 15 35 0 32 2 35 31 35 45
0 69 16 69 48 0 40 -17 52 -77 52 l-53 0 0 -85z m106 50 c9 -23 -15 -45 -47
-45 -26 0 -29 4 -29 30 0 28 3 30 35 30 23 0 38 -6 41 -15z"/>
<path d="M8945 4748 c27 -103 43 -107 67 -19 9 35 19 65 21 68 3 2 12 -28 22
-67 10 -39 23 -70 30 -70 13 0 60 158 50 168 -10 10 -21 -15 -35 -76 -7 -31
-14 -52 -16 -47 -2 6 -10 36 -19 68 -22 75 -40 75 -62 -3 -9 -33 -19 -60 -23
-60 -4 0 -13 27 -19 60 -7 36 -17 60 -25 60 -10 0 -7 -20 9 -82z"/>
<path d="M9160 4745 c0 -69 3 -85 15 -85 12 0 15 14 16 63 l1 62 21 -62 c11
-35 26 -63 33 -63 7 0 20 24 29 53 26 77 35 79 35 9 0 -35 4 -62 10 -62 6 0
10 35 10 86 0 76 -2 85 -17 82 -12 -2 -25 -24 -38 -60 -11 -31 -23 -59 -27
-63 -3 -3 -16 23 -28 59 -17 51 -26 66 -41 66 -17 0 -19 -8 -19 -85z"/>
<path d="M8780 4455 l0 -85 55 0 c30 0 55 5 55 10 0 6 -18 10 -40 10 l-40 0 0
75 c0 60 -3 75 -15 75 -12 0 -15 -16 -15 -85z"/>
<path d="M9180 4530 c0 -5 5 -10 10 -10 6 0 10 5 10 10 0 6 -4 10 -10 10 -5 0
-10 -4 -10 -10z"/>
<path d="M8932 4484 c-26 -18 -30 -74 -6 -98 18 -19 65 -21 82 -4 21 21 15 85
-10 102 -12 9 -27 16 -33 16 -6 0 -21 -7 -33 -16z m57 -18 c7 -8 11 -27 9 -43
-2 -21 -9 -29 -27 -31 -13 -2 -28 2 -32 10 -29 45 17 104 50 64z"/>
<path d="M9061 4481 c-42 -42 -13 -117 41 -109 22 4 28 1 26 -11 -4 -18 -58
-29 -58 -12 0 6 -4 11 -10 11 -16 0 -11 -27 6 -34 27 -10 52 -7 68 10 20 20
23 154 4 154 -7 0 -23 3 -35 6 -14 4 -28 -1 -42 -15z m62 -22 c5 -9 7 -28 3
-42 -8 -34 -42 -36 -57 -3 -22 47 27 88 54 45z"/>
<path d="M9250 4480 c-39 -39 -17 -110 35 -110 29 0 65 32 44 39 -7 2 -15 -1
-17 -7 -2 -7 -14 -12 -28 -12 -28 0 -42 37 -24 69 12 23 30 27 48 9 6 -6 15
-8 19 -4 9 9 -24 36 -44 36 -7 0 -22 -9 -33 -20z"/>
<path d="M9180 4430 c0 -33 4 -60 10 -60 6 0 10 27 10 60 0 33 -4 60 -10 60
-6 0 -10 -27 -10 -60z"/>
<path d="M10251 5070 c-35 -89 -35 -90 -21 -90 6 0 15 11 20 25 8 20 16 25 45
25 29 0 37 -5 45 -25 5 -14 16 -25 24 -25 12 0 7 18 -19 81 -19 44 -35 83 -35
85 0 2 -6 4 -14 4 -9 0 -27 -32 -45 -80z m63 3 c6 -20 4 -23 -18 -23 -30 0
-29 -2 -15 40 12 34 19 30 33 -17z"/>
<path d="M10590 5140 c0 -5 5 -10 10 -10 6 0 10 5 10 10 0 6 -4 10 -10 10 -5
0 -10 -4 -10 -10z"/>
<path d="M10744 5129 c-12 -14 -19 -36 -19 -64 0 -56 25 -85 75 -85 36 0 70
23 70 48 0 18 -14 14 -28 -8 -14 -22 -61 -27 -80 -8 -7 7 -12 30 -12 53 0 23
5 46 12 53 17 17 58 15 80 -5 25 -22 36 -8 13 17 -25 28 -86 27 -111 -1z"/>
<path d="M10530 5121 c0 -11 -6 -22 -12 -24 -10 -4 -10 -6 0 -6 8 -1 12 -18
12 -51 0 -36 4 -52 15 -57 9 -3 19 -2 23 2 4 4 1 10 -5 12 -15 5 -18 93 -4 93
5 0 4 11 -2 25 -14 30 -27 32 -27 6z"/>
<path d="M10431 5101 c-8 -5 -20 -7 -28 -4 -10 4 -13 -9 -13 -56 0 -34 4 -61
10 -61 6 0 10 17 10 38 0 46 20 78 44 69 12 -5 16 -19 16 -57 0 -27 5 -50 10
-50 6 0 10 25 10 55 0 43 -4 56 -19 65 -23 12 -22 12 -40 1z"/>
<path d="M10923 5103 c-21 -4 -23 -10 -23 -64 0 -33 4 -59 10 -59 6 0 10 20
10 45 0 40 3 47 26 55 14 6 22 14 19 20 -3 5 -9 9 -13 9 -4 -1 -17 -4 -29 -6z"/>
<path d="M11003 5100 c-53 -22 -35 -112 24 -118 55 -6 84 67 43 108 -22 22
-33 23 -67 10z m43 -18 c32 -22 20 -82 -16 -82 -18 0 -40 27 -40 49 0 11 28
41 38 41 4 0 12 -4 18 -8z"/>
<path d="M11126 5097 c-27 -20 -16 -50 22 -61 17 -5 32 -15 32 -22 0 -18 -47
-18 -53 -1 -2 6 -8 9 -12 5 -17 -16 5 -38 38 -38 68 0 74 55 8 74 -17 5 -31
13 -31 18 0 15 30 21 45 8 9 -7 19 -10 23 -6 8 8 -25 36 -43 36 -6 0 -19 -6
-29 -13z"/>
<path d="M11246 5097 c-27 -20 -16 -50 22 -61 17 -5 32 -15 32 -22 0 -18 -47
-18 -53 -1 -2 6 -8 9 -12 5 -17 -16 5 -38 38 -38 68 0 74 55 8 74 -17 5 -31
13 -31 18 0 15 30 21 45 8 9 -7 19 -10 23 -6 8 8 -25 36 -43 36 -6 0 -19 -6
-29 -13z"/>
<path d="M10590 5040 c0 -33 4 -60 10 -60 6 0 10 27 10 60 0 33 -4 60 -10 60
-6 0 -10 -27 -10 -60z"/>
<path d="M10640 5040 c0 -5 14 -10 30 -10 17 0 30 5 30 10 0 6 -13 10 -30 10
-16 0 -30 -4 -30 -10z"/>
<path d="M10204 4849 c-12 -14 -19 -36 -19 -64 0 -56 25 -85 75 -85 36 0 70
23 70 48 0 18 -14 14 -28 -8 -14 -22 -61 -27 -80 -8 -7 7 -12 30 -12 53 0 23
5 46 12 53 17 17 58 15 80 -5 25 -22 36 -8 13 17 -25 28 -86 27 -111 -1z"/>
<path d="M10700 4844 c0 -20 -4 -25 -16 -20 -29 11 -64 -21 -64 -59 0 -45 22
-65 71 -63 l39 1 0 84 c0 67 -3 83 -15 83 -9 0 -15 -10 -15 -26z m0 -55 c18
-32 4 -69 -24 -69 -13 0 -27 7 -30 16 -21 55 28 103 54 53z"/>
<path d="M11080 4860 c0 -5 5 -10 10 -10 6 0 10 5 10 10 0 6 -4 10 -10 10 -5
0 -10 -4 -10 -10z"/>
<path d="M11020 4841 c0 -11 -6 -22 -12 -24 -10 -4 -10 -6 0 -6 8 -1 12 -18
12 -51 0 -36 4 -52 15 -57 9 -3 19 -2 23 2 4 4 1 10 -5 12 -15 5 -18 93 -4 93
5 0 4 11 -2 25 -14 30 -27 32 -27 6z"/>
<path d="M10383 4820 c-53 -22 -35 -112 24 -118 55 -6 84 67 43 108 -22 22
-33 23 -67 10z m43 -18 c32 -22 20 -82 -16 -82 -18 0 -40 27 -40 49 0 11 28
41 38 41 4 0 12 -4 18 -8z"/>
<path d="M10531 4821 c-8 -5 -20 -7 -28 -4 -10 4 -13 -9 -13 -56 0 -34 4 -61
10 -61 6 0 10 17 10 38 0 46 20 78 44 69 12 -5 16 -19 16 -57 0 -27 5 -50 10
-50 6 0 10 25 10 55 0 43 -4 56 -19 65 -23 12 -22 12 -40 1z"/>
<path d="M10912 4814 c-25 -17 -31 -81 -10 -102 17 -17 63 -15 78 3 17 21 7
29 -18 14 -28 -18 -52 -5 -52 29 0 40 25 60 52 43 26 -16 39 -3 14 15 -25 18
-36 18 -64 -2z"/>
<path d="M11149 4812 c-25 -21 -30 -71 -9 -96 16 -21 64 -20 84 0 24 24 20 80
-6 98 -29 21 -41 20 -69 -2z m64 -23 c5 -9 7 -28 3 -43 -5 -22 -11 -27 -34
-24 -21 2 -28 9 -30 31 -6 50 37 75 61 36z"/>
<path d="M11293 4823 c-21 -4 -23 -10 -23 -64 0 -33 4 -59 10 -59 6 0 10 22
10 49 0 37 4 50 17 55 24 10 43 -19 43 -66 0 -21 5 -38 10 -38 17 0 12 97 -6
114 -16 16 -21 17 -61 9z"/>
<path d="M10762 4763 l3 -58 48 -1 47 -2 0 59 c0 33 -4 59 -10 59 -5 0 -10
-17 -10 -37 0 -47 -12 -66 -36 -61 -15 2 -20 14 -22 51 -2 26 -8 47 -13 47 -6
0 -9 -24 -7 -57z"/>
<path d="M11080 4760 c0 -33 4 -60 10 -60 6 0 10 27 10 60 0 33 -4 60 -10 60
-6 0 -10 -27 -10 -60z"/>
<path d="M10940 4555 c0 -22 -3 -25 -24 -19 -30 7 -66 -25 -66 -59 0 -42 27
-67 71 -65 l39 1 0 84 c0 49 -4 83 -10 83 -5 0 -10 -11 -10 -25z m-11 -49 c7
-8 11 -27 9 -43 -4 -38 -43 -45 -59 -10 -20 45 21 88 50 53z"/>
<path d="M10618 4533 c-9 -2 -19 -11 -22 -19 -7 -17 -2 -18 23 -2 20 12 51 5
51 -11 0 -6 -18 -15 -41 -21 -36 -10 -40 -14 -37 -38 3 -25 6 -27 54 -28 l51
-1 -5 51 c-6 72 -19 84 -74 69z m52 -78 c0 -17 -29 -34 -47 -28 -19 7 -16 31
5 36 32 9 42 7 42 -8z"/>
<path d="M10753 4533 c-21 -4 -23 -10 -23 -64 0 -33 4 -59 10 -59 6 0 10 22
10 49 0 37 4 50 17 55 24 10 43 -19 43 -66 0 -21 5 -38 10 -38 17 0 12 97 -6
114 -16 16 -21 17 -61 9z"/>
<path d="M10340 4205 c0 -50 4 -85 10 -85 6 0 10 16 10 35 0 34 1 35 40 35 31
0 43 5 56 25 15 23 15 27 0 50 -14 21 -24 25 -66 25 l-50 0 0 -85z m95 35 c0
-22 -5 -25 -37 -28 -36 -3 -38 -2 -38 28 0 30 2 31 38 28 32 -3 37 -6 37 -28z"/>
<path d="M10790 4206 l0 -86 48 0 c37 0 54 5 68 21 17 19 17 23 3 48 -12 20
-13 31 -5 44 19 30 -5 52 -63 55 l-51 3 0 -85z m93 52 c8 -25 -6 -38 -39 -38
-30 0 -34 3 -34 25 0 22 4 25 34 25 19 0 36 -6 39 -12z m2 -88 c0 -22 -5 -25
-37 -28 -36 -3 -38 -2 -38 28 0 30 2 31 38 28 32 -3 37 -6 37 -28z"/>
<path d="M10950 4280 c0 -5 5 -10 10 -10 6 0 10 5 10 10 0 6 -4 10 -10 10 -5
0 -10 -4 -10 -10z"/>
<path d="M10513 4243 c-21 -4 -23 -10 -23 -64 0 -33 4 -59 10 -59 6 0 10 17
10 38 0 42 7 56 33 65 17 6 15 29 -1 26 -4 -1 -17 -4 -29 -6z"/>
<path d="M10592 4234 c-25 -17 -31 -81 -10 -102 24 -24 98 -9 98 20 0 4 -7 8
-15 8 -8 0 -15 -5 -15 -11 0 -18 -55 -6 -58 14 -3 14 4 17 42 17 52 0 60 16
26 50 -24 24 -38 25 -68 4z m57 -17 c14 -18 4 -27 -31 -27 -30 0 -35 9 -16 28
16 16 33 15 47 -1z"/>
<path d="M11014 4236 c-24 -18 -13 -31 14 -15 20 13 52 7 52 -10 0 -6 -12 -13
-27 -17 -47 -10 -53 -13 -59 -29 -11 -27 15 -45 65 -44 l46 1 -3 52 c-5 70
-41 96 -88 62z m66 -71 c0 -17 -36 -39 -50 -30 -16 10 -11 33 8 38 32 9 42 7
42 -8z"/>
<path d="M11146 4237 c-27 -20 -16 -50 22 -61 17 -5 32 -15 32 -22 0 -18 -47
-18 -53 -1 -2 6 -8 9 -12 5 -17 -16 5 -38 38 -38 68 0 74 55 8 74 -17 5 -31
13 -31 18 0 15 30 21 45 8 9 -7 19 -10 23 -6 8 8 -25 36 -43 36 -6 0 -19 -6
-29 -13z"/>
<path d="M10950 4180 c0 -33 4 -60 10 -60 6 0 10 27 10 60 0 33 -4 60 -10 60
-6 0 -10 -27 -10 -60z"/>
<path d="M10700 4180 c0 -5 14 -10 30 -10 17 0 30 5 30 10 0 6 -13 10 -30 10
-16 0 -30 -4 -30 -10z"/>
<path d="M10471 3984 c-45 -57 -12 -144 55 -144 33 0 74 28 74 50 0 16 -14 12
-33 -10 -34 -40 -97 -11 -97 45 0 54 75 90 99 48 5 -10 13 -14 17 -10 17 17
-14 42 -53 45 -34 3 -44 -1 -62 -24z"/>
<path d="M10630 4000 c0 -5 5 -10 10 -10 6 0 10 5 10 10 0 6 -4 10 -10 10 -5
0 -10 -4 -10 -10z"/>
<path d="M11020 4000 c0 -5 5 -10 10 -10 6 0 10 5 10 10 0 6 -4 10 -10 10 -5
0 -10 -4 -10 -10z"/>
<path d="M11070 3981 c0 -11 -6 -22 -12 -24 -10 -4 -10 -6 0 -6 8 -1 12 -18
12 -51 0 -36 4 -52 15 -57 9 -3 19 -2 23 2 4 4 1 10 -5 12 -15 5 -18 93 -4 93
5 0 4 11 -2 25 -14 30 -27 32 -27 6z"/>
<path d="M10703 3963 c-21 -4 -23 -10 -23 -64 0 -33 4 -59 10 -59 6 0 10 20
10 45 0 40 3 47 26 55 14 6 22 14 19 20 -3 5 -9 9 -13 9 -4 -1 -17 -4 -29 -6z"/>
<path d="M10778 3960 c-25 -15 -33 -66 -14 -95 19 -29 66 -34 86 -10 17 21 7
29 -18 14 -30 -19 -52 -5 -52 35 0 36 24 56 44 36 5 -5 17 -10 25 -10 11 0 10
4 -4 20 -20 22 -41 25 -67 10z"/>
<path d="M10630 3900 c0 -33 4 -60 10 -60 6 0 10 27 10 60 0 33 -4 60 -10 60
-6 0 -10 -27 -10 -60z"/>
<path d="M10882 3903 l3 -58 48 -1 47 -2 0 59 c0 33 -4 59 -10 59 -5 0 -10
-17 -10 -37 0 -47 -12 -66 -36 -61 -15 2 -20 14 -22 51 -2 26 -8 47 -13 47 -6
0 -9 -24 -7 -57z"/>
<path d="M11020 3900 c0 -33 4 -60 10 -60 6 0 10 27 10 60 0 33 -4 60 -10 60
-6 0 -10 -27 -10 -60z"/>
<path d="M3780 5460 c-14 -14 -20 -33 -20 -65 0 -32 6 -51 20 -65 37 -37 120
-19 120 26 0 20 -13 17 -28 -6 -15 -24 -54 -26 -76 -4 -18 18 -21 66 -6 95 13
23 62 26 80 4 16 -19 30 -19 30 0 0 36 -87 48 -120 15z"/>
<path d="M4070 5395 c0 -50 4 -85 10 -85 6 0 10 35 10 85 0 50 -4 85 -10 85
-6 0 -10 -35 -10 -85z"/>
<path d="M4120 5470 c0 -5 5 -10 10 -10 6 0 10 5 10 10 0 6 -4 10 -10 10 -5 0
-10 -4 -10 -10z"/>
<path d="M4170 5397 l0 -84 39 -1 c47 -2 71 18 71 59 0 39 -33 71 -65 63 -22
-5 -25 -3 -25 20 0 14 -4 26 -10 26 -6 0 -10 -34 -10 -83z m83 2 c5 -9 7 -28
3 -42 -9 -36 -53 -38 -62 -3 -12 50 33 86 59 45z"/>
<path d="M4590 5470 c0 -5 5 -10 10 -10 6 0 10 5 10 10 0 6 -4 10 -10 10 -5 0
-10 -4 -10 -10z"/>
<path d="M4519 5448 c-2 -13 -2 -48 1 -78 4 -48 8 -55 28 -58 25 -4 30 13 7
22 -21 8 -20 75 1 83 15 5 15 7 0 15 -9 5 -16 16 -16 23 0 24 -17 17 -21 -7z"/>
<path d="M3958 5433 c-9 -2 -19 -11 -22 -19 -7 -17 -2 -18 23 -2 20 12 51 5
51 -11 0 -6 -18 -15 -41 -21 -36 -10 -40 -14 -37 -38 3 -25 6 -27 54 -28 l51
-1 -5 51 c-6 72 -19 84 -74 69z m52 -78 c0 -17 -29 -34 -47 -28 -19 7 -16 31
5 36 32 9 42 7 42 -8z"/>
<path d="M4328 5433 c-15 -4 -18 -16 -18 -64 0 -33 4 -59 10 -59 6 0 10 23 10
50 0 44 3 50 21 50 11 0 19 5 17 12 -5 14 -17 17 -40 11z"/>
<path d="M4399 5420 c-18 -14 -20 -19 -8 -20 8 0 20 5 26 11 13 13 43 5 43
-10 0 -6 -14 -14 -32 -19 -36 -9 -54 -32 -45 -56 5 -12 18 -16 57 -14 l50 2 0
47 c0 74 -42 101 -91 59z m61 -65 c0 -17 -29 -34 -47 -28 -20 7 -15 23 10 33
31 13 37 12 37 -5z"/>
<path d="M4663 5430 c-53 -22 -35 -112 24 -118 55 -6 84 67 43 108 -22 22 -33
23 -67 10z m43 -18 c32 -22 20 -82 -16 -82 -18 0 -40 27 -40 49 0 11 28 41 38
41 4 0 12 -4 18 -8z"/>
<path d="M4811 5431 c-8 -5 -20 -7 -28 -4 -10 4 -13 -9 -13 -56 0 -34 4 -61
10 -61 6 0 10 17 10 38 0 46 20 78 44 69 12 -5 16 -19 16 -57 0 -27 5 -50 10
-50 6 0 10 25 10 55 0 43 -4 56 -19 65 -23 12 -22 12 -40 1z"/>
<path d="M4120 5370 c0 -33 4 -60 10 -60 6 0 10 27 10 60 0 33 -4 60 -10 60
-6 0 -10 -27 -10 -60z"/>
<path d="M4590 5370 c0 -33 4 -60 10 -60 6 0 10 27 10 60 0 33 -4 60 -10 60
-6 0 -10 -27 -10 -60z"/>
<path d="M4011 5164 c-45 -57 -12 -144 55 -144 33 0 74 28 74 50 0 16 -14 12
-33 -10 -34 -40 -97 -11 -97 45 0 54 75 90 99 48 5 -10 13 -14 17 -10 17 17
-14 42 -53 45 -34 3 -44 -1 -62 -24z"/>
<path d="M4170 5180 c0 -5 5 -10 10 -10 6 0 10 5 10 10 0 6 -4 10 -10 10 -5 0
-10 -4 -10 -10z"/>
<path d="M4560 5180 c0 -5 5 -10 10 -10 6 0 10 5 10 10 0 6 -4 10 -10 10 -5 0
-10 -4 -10 -10z"/>
<path d="M4610 5161 c0 -11 -6 -22 -12 -24 -10 -4 -10 -6 0 -6 8 -1 12 -18 12
-51 0 -36 4 -52 15 -57 9 -3 19 -2 23 2 4 4 1 10 -5 12 -15 5 -18 93 -4 93 5
0 4 11 -2 25 -14 30 -27 32 -27 6z"/>
<path d="M4243 5143 c-21 -4 -23 -10 -23 -64 0 -33 4 -59 10 -59 6 0 10 20 10
45 0 40 3 47 26 55 14 6 22 14 19 20 -3 5 -9 9 -13 9 -4 -1 -17 -4 -29 -6z"/>
<path d="M4318 5140 c-25 -15 -33 -66 -14 -95 19 -29 66 -34 86 -10 17 21 7
29 -18 14 -30 -19 -52 -5 -52 35 0 36 24 56 44 36 5 -5 17 -10 25 -10 11 0 10
4 -4 20 -20 22 -41 25 -67 10z"/>
<path d="M4170 5080 c0 -33 4 -60 10 -60 6 0 10 27 10 60 0 33 -4 60 -10 60
-6 0 -10 -27 -10 -60z"/>
<path d="M4420 5091 c0 -57 13 -71 63 -69 l37 1 0 59 c0 69 -18 78 -22 11 -2
-37 -7 -49 -22 -51 -24 -5 -36 14 -36 61 0 20 -4 37 -10 37 -5 0 -10 -22 -10
-49z"/>
<path d="M4560 5080 c0 -33 4 -60 10 -60 6 0 10 27 10 60 0 33 -4 60 -10 60
-6 0 -10 -27 -10 -60z"/>
<path d="M6004 5099 c-29 -32 -26 -105 5 -130 25 -21 71 -25 101 -9 44 24 45
126 0 150 -32 17 -85 12 -106 -11z m100 -15 c9 -8 16 -31 16 -49 0 -18 -7 -41
-16 -49 -22 -23 -71 -20 -84 3 -14 27 -13 84 2 99 17 17 64 15 82 -4z"/>
<path d="M6420 5110 c0 -5 5 -10 10 -10 6 0 10 5 10 10 0 6 -4 10 -10 10 -5 0
-10 -4 -10 -10z"/>
<path d="M6470 5035 c0 -50 4 -85 10 -85 6 0 10 35 10 85 0 50 -4 85 -10 85
-6 0 -10 -35 -10 -85z"/>
<path d="M6520 5035 c0 -50 4 -85 10 -85 6 0 10 35 10 85 0 50 -4 85 -10 85
-6 0 -10 -35 -10 -85z"/>
<path d="M6709 5088 c-2 -13 -2 -48 1 -78 4 -48 8 -55 28 -58 25 -4 30 13 7
22 -21 8 -20 75 1 83 15 5 15 7 0 15 -9 5 -16 16 -16 23 0 24 -17 17 -21 -7z"/>
<path d="M6186 5067 c-27 -20 -16 -50 22 -61 17 -5 32 -15 32 -22 0 -18 -47
-18 -53 -1 -2 6 -8 9 -12 5 -17 -16 5 -38 38 -38 68 0 74 55 8 74 -17 5 -31
13 -31 18 0 15 30 21 45 8 9 -7 19 -10 23 -6 8 8 -25 36 -43 36 -6 0 -19 -6
-29 -13z"/>
<path d="M6310 5060 c-39 -39 -17 -110 35 -110 29 0 65 32 44 39 -7 2 -15 -1
-17 -7 -2 -7 -14 -12 -28 -12 -28 0 -42 37 -24 69 12 23 30 27 48 9 6 -6 15
-8 19 -4 9 9 -24 36 -44 36 -7 0 -22 -9 -33 -20z"/>
<path d="M6598 5073 c-9 -2 -19 -11 -22 -19 -7 -17 -2 -18 23 -2 20 12 51 5
51 -11 0 -6 -18 -15 -41 -21 -36 -10 -40 -14 -37 -38 3 -25 6 -27 54 -28 l51
-1 -5 51 c-6 72 -19 84 -74 69z m52 -78 c0 -17 -29 -34 -47 -28 -19 7 -16 31
5 36 32 9 42 7 42 -8z"/>
<path d="M6789 5062 c-25 -21 -30 -71 -9 -96 16 -21 64 -20 84 0 24 24 20 80
-6 98 -29 21 -41 20 -69 -2z m64 -23 c5 -9 7 -28 3 -43 -5 -22 -11 -27 -34
-24 -21 2 -28 9 -30 31 -6 50 37 75 61 36z"/>
<path d="M6928 5073 c-15 -4 -18 -16 -18 -64 0 -33 4 -59 10 -59 6 0 10 23 10
50 0 44 3 50 21 50 11 0 19 5 17 12 -5 14 -17 17 -40 11z"/>
<path d="M6420 5010 c0 -33 4 -60 10 -60 6 0 10 27 10 60 0 33 -4 60 -10 60
-6 0 -10 -27 -10 -60z"/>
<path d="M6680 4175 c-35 -29 -66 -59 -69 -67 -5 -15 -5 -15 72 46 l47 38 0
-101 c0 -55 3 -101 8 -101 4 0 63 45 132 100 l125 100 3 -100 c1 -55 6 -100
10 -100 4 0 63 45 132 100 l125 100 3 -105 3 -105 132 106 132 106 3 -96 c4
-137 22 -121 22 20 l0 115 -27 -20 c-16 -11 -75 -58 -133 -104 l-105 -85 -5
103 -5 103 -130 -104 -130 -104 -5 104 -5 104 -130 -104 -130 -104 -5 104 -5
103 -65 -52z"/>
<path d="M8000 3745 c0 -50 4 -85 10 -85 6 0 10 16 10 35 0 34 1 35 40 35 31
0 43 5 56 25 15 23 15 27 0 50 -14 21 -24 25 -66 25 l-50 0 0 -85z m95 35 c0
-22 -5 -25 -37 -28 -36 -3 -38 -2 -38 28 0 30 2 31 38 28 32 -3 37 -6 37 -28z"/>
<path d="M8142 3818 c3 -7 13 -46 23 -85 11 -41 24 -73 31 -73 11 0 44 90 44
119 0 6 5 11 10 11 6 0 10 -5 10 -11 0 -29 33 -119 43 -119 7 0 21 33 31 73
10 39 21 78 24 86 3 8 0 12 -9 9 -7 -2 -21 -33 -29 -69 l-17 -64 -16 57 c-9
31 -17 61 -17 67 0 6 -8 11 -18 11 -14 0 -22 -13 -31 -52 -21 -84 -27 -86 -41
-14 -9 44 -18 66 -28 66 -8 0 -12 -6 -10 -12z"/>
<path d="M8380 3745 c0 -101 18 -115 22 -17 l3 67 23 -67 c13 -38 29 -68 36
-68 7 0 22 28 33 63 l21 62 1 -62 c1 -49 4 -63 16 -63 12 0 15 16 15 85 0 77
-2 85 -19 85 -15 0 -25 -16 -44 -72 l-24 -73 -23 73 c-18 54 -28 72 -42 72
-16 0 -18 -10 -18 -85z"/>
<path d="M13700 4066 l0 -86 48 0 c37 0 54 5 68 21 17 19 17 23 3 48 -12 20
-13 31 -5 44 19 30 -5 52 -63 55 l-51 3 0 -85z m93 52 c8 -25 -6 -38 -39 -38
-30 0 -34 3 -34 25 0 22 4 25 34 25 19 0 36 -6 39 -12z m2 -88 c0 -22 -5 -25
-37 -28 -36 -3 -38 -2 -38 28 0 30 2 31 38 28 32 -3 37 -6 37 -28z"/>
<path d="M13870 4065 c0 -50 4 -85 10 -85 6 0 10 16 10 35 0 33 2 35 34 35 55
0 80 36 56 81 -8 15 -22 19 -60 19 l-50 0 0 -85z m90 50 c18 -21 -4 -45 -41
-45 -26 0 -29 4 -29 30 0 26 3 30 29 30 16 0 34 -7 41 -15z"/>
<path d="M14500 3761 c0 -47 4 -81 10 -81 6 0 10 16 10 36 0 32 2 35 23 28 12
-3 44 -18 71 -31 55 -28 76 -25 76 12 0 21 5 25 30 25 l30 0 0 -95 c0 -131 -4
-135 -132 -135 l-98 0 0 34 c0 19 -4 38 -10 41 -6 4 -10 -25 -10 -80 0 -55 4
-84 10 -80 6 3 10 19 10 36 l0 29 101 0 c74 0 104 -4 115 -14 10 -11 14 -43
14 -130 l0 -116 -100 0 c-60 0 -100 -4 -100 -10 0 -6 79 -10 216 -10 141 0
213 3 209 10 -3 6 -50 10 -106 10 l-99 0 0 114 c0 65 4 117 10 121 26 16 30
43 10 68 -17 21 -20 41 -20 126 l0 101 -40 0 c-38 0 -40 2 -40 30 0 17 -2 30
-5 30 -3 0 -32 -13 -65 -30 -78 -39 -100 -39 -100 -1 0 17 -4 33 -10 36 -6 4
-10 -23 -10 -74z"/>
<path d="M14693 3153 c43 -2 110 -2 150 0 40 1 5 3 -78 3 -82 0 -115 -2 -72
-3z"/>
<path d="M14723 3083 c20 -2 54 -2 75 0 20 2 3 4 -38 4 -41 0 -58 -2 -37 -4z"/>
<path d="M14075 2945 c-16 -13 -26 -27 -22 -31 3 -4 13 -1 22 6 13 11 15 4 15
-54 0 -52 3 -66 15 -66 12 0 15 16 15 85 0 47 -3 85 -7 85 -5 -1 -21 -12 -38
-25z"/>
<path d="M14187 2952 c-19 -21 -23 -102 -7 -133 7 -12 21 -19 40 -19 36 0 50
23 50 85 0 25 -5 55 -10 66 -13 24 -52 25 -73 1z m64 -29 c22 -57 -24 -136
-52 -91 -10 15 -12 79 -3 102 10 26 43 19 55 -11z"/>
<path d="M14547 2938 c-8 -18 -22 -54 -31 -79 -24 -62 -46 -61 -46 3 0 26 -4
48 -10 48 -5 0 -10 -20 -10 -44 0 -31 -5 -46 -16 -50 -26 -10 -34 2 -34 50 0
24 -4 44 -10 44 -5 0 -10 -26 -10 -57 0 -32 -3 -68 -6 -80 -4 -14 -2 -23 5
-23 6 0 11 11 11 25 0 27 8 30 87 25 38 -2 43 1 49 24 5 22 12 26 45 26 33 0
41 -4 49 -25 5 -14 16 -25 24 -25 12 0 7 18 -19 81 -19 44 -35 83 -35 85 0 2
-6 4 -14 4 -7 0 -20 -15 -29 -32z m47 -45 c6 -20 4 -23 -18 -23 -30 0 -29 -2
-15 40 12 34 19 30 33 -17z"/>
<path d="M1697 2932 c-19 -21 -23 -102 -7 -133 15 -27 64 -25 84 3 9 12 16 41
16 63 0 73 -53 111 -93 67z m64 -29 c22 -57 -24 -136 -52 -91 -10 15 -12 79
-3 102 10 26 43 19 55 -11z"/>
<path d="M1897 2932 c-22 -25 -23 -115 -1 -136 34 -34 94 -9 94 39 0 34 -28
58 -62 53 -30 -5 -37 9 -16 30 15 15 45 16 50 1 2 -7 10 -10 17 -8 11 4 10 9
-3 22 -23 22 -59 22 -79 -1z m63 -77 c18 -21 3 -55 -25 -55 -15 0 -26 7 -30
20 -7 23 10 50 30 50 7 0 18 -7 25 -15z"/>
<path d="M2075 2933 c4 -10 18 -48 32 -85 14 -38 31 -68 38 -68 7 0 27 35 44
78 34 83 36 92 22 92 -5 0 -21 -31 -36 -70 -15 -38 -28 -70 -30 -70 -2 0 -14
32 -26 70 -14 43 -28 70 -37 70 -9 0 -12 -6 -7 -17z"/>
<path d="M2240 2760 c0 -40 4 -70 10 -70 6 0 10 14 10 30 0 41 27 40 62 -2 31
-38 48 -34 18 4 -17 23 -18 27 -5 38 38 32 5 70 -59 70 l-36 0 0 -70z m88 28
c3 -15 -4 -18 -32 -18 -30 0 -36 4 -36 21 0 17 5 20 32 17 22 -2 34 -9 36 -20z"/>
<path d="M2380 2760 l0 -70 50 0 c28 0 50 5 50 10 0 6 -18 10 -40 10 -33 0
-40 3 -40 20 0 16 7 20 35 20 19 0 35 5 35 10 0 6 -16 10 -35 10 -28 0 -35 4
-35 20 0 17 7 20 40 20 22 0 40 5 40 10 0 6 -22 10 -50 10 l-50 0 0 -70z"/>
<path d="M2512 2758 c0 -40 3 -58 5 -40 4 29 7 32 39 32 19 0 34 5 34 10 0 6
-16 10 -35 10 -28 0 -35 4 -35 20 0 17 7 20 40 20 22 0 40 5 40 10 0 6 -20 10
-45 10 l-45 0 2 -72z"/>
<path d="M1820 2790 c0 -5 7 -10 15 -10 8 0 15 5 15 10 0 6 -7 10 -15 10 -8 0
-15 -4 -15 -10z"/>
<path d="M13190 2750 c0 -6 53 -10 140 -10 87 0 140 4 140 10 0 6 -53 10 -140
10 -87 0 -140 -4 -140 -10z"/>
<path d="M13260 2680 c0 -6 30 -10 70 -10 40 0 70 4 70 10 0 6 -30 10 -70 10
-40 0 -70 -4 -70 -10z"/>
<path d="M2316 2524 c-9 -8 -16 -19 -16 -23 0 -18 28 -42 65 -54 52 -18 56
-50 8 -55 -24 -2 -35 2 -45 17 -15 24 -28 27 -28 7 0 -26 30 -46 69 -46 44 0
61 14 61 52 0 24 -6 29 -50 45 -34 12 -50 23 -48 33 4 21 52 25 68 6 14 -18
30 -21 30 -7 0 20 -33 41 -65 41 -18 0 -41 -7 -49 -16z"/>
<path d="M2476 2524 c-9 -8 -16 -19 -16 -23 0 -18 28 -42 65 -54 52 -18 56
-50 8 -55 -24 -2 -35 2 -45 17 -15 24 -28 27 -28 7 0 -26 30 -46 69 -46 44 0
61 14 61 52 0 24 -6 29 -50 45 -34 12 -50 23 -48 33 4 21 52 25 68 6 14 -18
30 -21 30 -7 0 20 -33 41 -65 41 -18 0 -41 -7 -49 -16z"/>
<path d="M4700 2420 c0 -5 17 -10 38 -10 l39 0 -23 -47 c-34 -69 -40 -103 -20
-103 10 0 16 9 16 24 0 13 14 50 30 81 17 31 30 59 30 61 0 2 -25 4 -55 4 -30
0 -55 -4 -55 -10z"/>
<path d="M4850 2423 c0 -5 -4 -25 -9 -45 l-9 -37 42 2 c39 2 41 1 41 -28 0
-24 -5 -31 -24 -33 -15 -2 -28 3 -33 12 -10 17 -28 22 -28 7 0 -19 32 -41 59
-41 35 0 51 17 51 55 0 39 -16 55 -53 55 -22 0 -28 4 -23 16 3 9 6 18 6 20 0
2 16 4 35 4 19 0 35 5 35 10 0 11 -90 14 -90 3z"/>
<path d="M4980 2414 c-8 -9 -14 -39 -14 -69 0 -64 16 -87 58 -83 25 2 33 10
44 40 12 31 12 43 1 80 -12 37 -18 43 -45 46 -19 2 -36 -3 -44 -14z m65 -69
c0 -57 -1 -60 -25 -60 -23 0 -25 4 -28 49 -4 62 2 78 30 74 21 -3 23 -8 23
-63z"/>
<path d="M5170 2345 c0 -50 4 -85 10 -85 6 0 10 11 10 24 0 37 17 40 36 6 10
-16 24 -30 32 -30 14 0 7 17 -22 55 -13 18 -13 22 6 43 28 29 3 30 -29 0 l-23
-21 0 46 c0 26 -4 47 -10 47 -6 0 -10 -35 -10 -85z"/>
<path d="M5309 2402 c-31 -26 -30 -78 2 -104 l24 -20 -27 5 c-19 3 -28 0 -28
-9 0 -9 12 -14 35 -14 40 0 43 7 15 43 -24 30 -25 55 -4 85 18 27 55 29 77 4
21 -23 22 -65 3 -81 -8 -6 -16 -21 -19 -31 -4 -17 0 -20 29 -20 22 0 34 5 34
14 0 9 -8 12 -26 8 l-26 -5 26 26 c33 33 33 61 1 92 -29 30 -83 33 -116 7z"/>
<path d="M4570 1225 c0 -45 -19 -46 -100 -5 -33 17 -62 30 -65 30 -3 0 -5 -13
-5 -30 0 -29 -2 -30 -45 -30 l-45 0 0 -104 c0 -80 -3 -106 -15 -116 -8 -7 -15
-23 -15 -37 0 -13 7 -26 15 -29 12 -5 15 -29 15 -125 l0 -119 -99 0 c-56 0
-103 -4 -106 -10 -4 -7 68 -10 209 -10 137 0 216 4 216 10 0 6 -40 10 -100 10
l-100 0 0 116 c0 146 -2 143 137 144 l102 0 4 -37 c2 -21 4 3 4 52 0 50 -2 73
-4 53 l-4 -38 -102 0 c-137 1 -137 1 -137 124 l0 97 33 -3 c27 -2 33 -8 35
-30 2 -16 8 -28 13 -28 5 0 37 14 70 31 34 17 67 28 74 25 8 -3 15 -20 18 -38
2 -18 5 4 5 50 1 45 0 82 -3 82 -3 0 -5 -16 -5 -35z"/>
<path d="M6060 1165 c0 -85 16 -119 22 -47 3 35 5 37 41 40 50 4 48 22 -3 22
-36 0 -40 3 -40 25 0 23 3 25 50 25 28 0 50 5 50 10 0 6 -27 10 -60 10 l-60 0
0 -85z"/>
<path d="M6470 1165 c0 -50 4 -85 10 -85 6 0 10 35 10 85 0 50 -4 85 -10 85
-6 0 -10 -35 -10 -85z"/>
<path d="M6674 1229 c-12 -14 -19 -36 -19 -64 0 -56 25 -85 75 -85 36 0 70 23
70 48 0 18 -14 14 -28 -8 -14 -22 -61 -27 -80 -8 -7 7 -12 30 -12 53 0 23 5
46 12 53 17 17 58 15 80 -5 25 -22 36 -8 13 17 -25 28 -86 27 -111 -1z"/>
<path d="M7380 1165 c0 -50 4 -85 10 -85 6 0 10 35 10 85 0 50 -4 85 -10 85
-6 0 -10 -35 -10 -85z"/>
<path d="M7430 1165 c0 -50 4 -85 10 -85 6 0 10 35 10 85 0 50 -4 85 -10 85
-6 0 -10 -35 -10 -85z"/>
<path d="M6523 1215 c-6 -14 -7 -27 -2 -31 5 -3 9 -27 9 -55 0 -42 3 -49 20
-49 11 0 20 5 20 10 0 6 -4 10 -10 10 -15 0 -12 87 3 93 10 4 10 6 0 6 -7 1
-13 10 -13 21 0 27 -13 25 -27 -5z"/>
<path d="M7100 1221 c0 -11 -6 -22 -12 -24 -10 -4 -10 -6 0 -6 8 -1 12 -18 12
-51 0 -36 4 -52 15 -57 9 -3 19 -2 23 2 4 4 1 10 -5 12 -15 5 -18 93 -4 93 5
0 4 11 -2 25 -14 30 -27 32 -27 6z"/>
<path d="M6228 1203 c-9 -2 -19 -11 -22 -19 -7 -17 -2 -18 23 -2 20 12 51 5
51 -11 0 -6 -18 -15 -41 -21 -36 -10 -40 -14 -37 -38 3 -25 6 -27 54 -28 l51
-1 -5 51 c-6 72 -19 84 -74 69z m52 -78 c0 -17 -29 -34 -47 -28 -19 7 -16 31
5 36 32 9 42 7 42 -8z"/>
<path d="M6853 1200 c-53 -22 -35 -112 24 -118 55 -6 84 67 43 108 -22 22 -33
23 -67 10z m43 -18 c32 -22 20 -82 -16 -82 -18 0 -40 27 -40 49 0 11 28 41 38
41 4 0 12 -4 18 -8z"/>
<path d="M7001 1201 c-8 -5 -20 -7 -28 -4 -10 4 -13 -9 -13 -56 0 -34 4 -61
10 -61 6 0 10 17 10 38 0 46 20 78 44 69 12 -5 16 -19 16 -57 0 -27 5 -50 10
-50 6 0 10 25 10 55 0 43 -4 56 -19 65 -23 12 -22 12 -40 1z"/>
<path d="M7183 1203 c-21 -4 -23 -10 -23 -64 0 -33 4 -59 10 -59 6 0 10 17 10
38 0 42 7 56 33 65 17 6 15 29 -1 26 -4 -1 -17 -4 -29 -6z"/>
<path d="M7259 1192 c-25 -21 -30 -71 -9 -96 16 -21 64 -20 84 0 24 24 20 80
-6 98 -29 21 -41 20 -69 -2z m64 -23 c5 -9 7 -28 3 -43 -5 -22 -11 -27 -34
-24 -21 2 -28 9 -30 31 -6 50 37 75 61 36z"/>
<path d="M7502 1194 c-25 -17 -31 -81 -10 -102 24 -24 98 -9 98 20 0 4 -7 8
-15 8 -8 0 -15 -5 -15 -11 0 -18 -55 -6 -58 14 -3 14 4 17 42 17 52 0 60 16
26 50 -24 24 -38 25 -68 4z m57 -17 c14 -18 4 -27 -31 -27 -30 0 -35 9 -16 28
16 16 33 15 47 -1z"/>
<path d="M7638 1203 c-15 -4 -18 -16 -18 -64 0 -33 4 -59 10 -59 6 0 10 23 10
50 0 44 3 50 21 50 11 0 19 5 17 12 -5 14 -17 17 -40 11z"/>
<path d="M6342 1143 l3 -58 48 -1 47 -1 0 59 c0 44 -4 58 -14 58 -11 0 -16
-14 -18 -47 -3 -41 -6 -48 -25 -51 -21 -3 -23 0 -23 47 0 29 -5 51 -10 51 -7
0 -10 -22 -8 -57z"/>
<path d="M8480 790 c0 -6 55 -10 145 -10 90 0 145 4 145 10 0 6 -55 10 -145
10 -90 0 -145 -4 -145 -10z"/>
<path d="M8550 720 c0 -6 32 -10 75 -10 43 0 75 4 75 10 0 6 -32 10 -75 10
-43 0 -75 -4 -75 -10z"/>
<path d="M1420 700 c0 -5 11 -10 25 -10 24 0 25 -2 25 -75 0 -60 3 -75 15 -75
12 0 15 15 15 75 0 73 1 75 25 75 14 0 25 5 25 10 0 6 -28 10 -65 10 -37 0
-65 -4 -65 -10z"/>
<path d="M1580 625 c0 -50 4 -85 10 -85 6 0 10 16 10 35 0 34 1 35 40 35 31 0
43 5 56 25 15 23 15 27 0 50 -14 21 -24 25 -66 25 l-50 0 0 -85z m95 35 c0
-22 -5 -25 -37 -28 -36 -3 -38 -2 -38 28 0 30 2 31 38 28 32 -3 37 -6 37 -28z"/>
<path d="M1746 694 c-9 -8 -16 -19 -16 -23 0 -18 28 -42 65 -54 52 -18 56 -50
8 -55 -24 -2 -35 2 -45 17 -15 24 -28 27 -28 7 0 -26 30 -46 69 -46 44 0 61
14 61 52 0 24 -6 29 -50 45 -34 12 -50 23 -48 33 4 21 52 25 68 6 14 -18 30
-21 30 -7 0 20 -33 41 -65 41 -18 0 -41 -7 -49 -16z"/>
<path d="M1907 703 c-2 -5 -7 -25 -11 -46 l-7 -37 39 6 c32 5 40 3 46 -11 17
-46 -39 -79 -63 -38 -5 10 -13 14 -17 10 -14 -14 12 -42 40 -45 32 -4 66 22
66 50 0 36 -19 58 -50 58 -23 0 -30 4 -30 20 0 16 7 20 35 20 19 0 35 5 35 10
0 12 -77 14 -83 3z"/>
<path d="M2036 688 c-9 -12 -16 -41 -16 -63 0 -52 23 -85 59 -85 36 0 51 17
51 56 0 40 -21 58 -60 50 -33 -6 -35 -4 -20 25 12 21 40 25 58 7 17 -17 28 -2
12 17 -19 23 -66 19 -84 -7z m69 -93 c0 -35 -31 -47 -51 -20 -18 25 0 57 29
53 17 -2 22 -10 22 -33z"/>
<path d="M2172 698 c-14 -14 -16 -38 -3 -38 5 0 12 7 15 16 9 22 50 14 54 -11
2 -13 -13 -35 -43 -64 -25 -23 -45 -47 -45 -52 0 -5 25 -9 55 -9 30 0 55 5 55
10 0 6 -19 10 -42 10 l-42 0 42 36 c44 37 55 77 30 102 -15 15 -61 15 -76 0z"/>
<path d="M2302 698 c-14 -14 -16 -38 -3 -38 5 0 11 7 15 15 3 8 17 15 31 15
38 0 33 -38 -11 -81 -20 -18 -40 -42 -45 -51 -9 -16 -4 -18 51 -18 33 0 60 4
60 10 0 6 -19 10 -41 10 l-42 0 42 45 c22 24 41 51 41 59 0 38 -70 62 -98 34z"/>
<path d="M2462 687 c-27 -29 -28 -41 -2 -27 19 10 20 8 20 -55 0 -37 4 -65 10
-65 6 0 10 35 10 85 0 47 -4 85 -8 85 -5 0 -18 -10 -30 -23z"/>
<path d="M12141 574 c-46 -59 -10 -144 62 -144 47 0 77 34 77 86 0 52 -31 84
-82 84 -28 0 -42 -7 -57 -26z m103 -16 c33 -46 7 -108 -44 -108 -32 0 -60 31
-60 65 0 59 73 88 104 43z"/>
<path d="M12330 580 c-14 -14 -20 -33 -20 -65 0 -32 6 -51 20 -65 37 -37 120
-19 120 26 0 20 -13 17 -28 -6 -15 -24 -54 -26 -76 -4 -18 18 -21 66 -6 95 13
23 62 26 80 4 16 -19 30 -19 30 0 0 36 -87 48 -120 15z"/>
<path d="M4180 580 c0 -6 53 -10 140 -10 87 0 140 4 140 10 0 6 -53 10 -140
10 -87 0 -140 -4 -140 -10z"/>
<path d="M4283 503 c20 -2 54 -2 75 0 20 2 3 4 -38 4 -41 0 -58 -2 -37 -4z"/>
<path d="M4150 3945 c0 -12 14 -15 70 -15 56 0 70 3 70 15 0 12 -14 15 -70 15
-56 0 -70 -3 -70 -15z"/>
<path d="M4200 3580 c0 -27 -3 -30 -30 -30 -16 0 -30 -4 -30 -10 0 -5 14 -10
30 -10 27 0 30 -3 30 -30 0 -16 5 -30 10 -30 6 0 10 14 10 30 0 27 3 30 30 30
38 0 40 18 3 22 -22 2 -29 9 -31 31 -4 37 -22 35 -22 -3z"/>
<path d="M7440 3725 c0 -12 14 -15 70 -15 56 0 70 3 70 15 0 12 -14 15 -70 15
-56 0 -70 -3 -70 -15z"/>
<path d="M7487 3383 c-4 -3 -7 -17 -7 -30 0 -18 -5 -23 -25 -23 -14 0 -25 -4
-25 -10 0 -5 11 -10 24 -10 19 0 25 -6 28 -27 4 -39 28 -42 28 -4 0 28 3 31
30 31 17 0 30 5 30 10 0 6 -13 10 -30 10 -27 0 -30 3 -30 30 0 29 -9 38 -23
23z"/>
<path d="M3460 2943 c0 -5 34 -71 75 -148 l74 -140 -75 -141 c-41 -78 -74
-145 -74 -148 0 -3 72 -6 160 -6 88 0 160 1 160 3 0 2 -34 67 -75 145 -41 78
-75 144 -75 147 0 2 34 68 75 146 41 77 75 143 75 145 0 2 -72 4 -160 4 -88 0
-160 -3 -160 -7z m288 -21 c-15 -37 -120 -232 -126 -236 -7 -4 -132 221 -132
238 0 3 59 6 131 6 72 0 129 -4 127 -8z m-55 -427 c29 -55 53 -103 55 -107 2
-5 -55 -8 -127 -8 -72 0 -131 3 -131 6 0 4 28 60 63 125 72 137 60 139 140
-16z"/>
<path d="M8620 2560 c0 -5 14 -10 30 -10 l30 0 0 -75 c0 -43 4 -75 10 -75 6 0
10 32 10 75 l0 75 30 0 c17 0 30 5 30 10 0 6 -30 10 -70 10 -40 0 -70 -4 -70
-10z"/>
<path d="M8780 2485 c0 -50 4 -85 10 -85 6 0 10 20 10 44 0 46 19 72 45 62 11
-4 15 -20 15 -56 0 -27 5 -50 10 -50 6 0 10 25 10 55 0 44 -4 56 -20 65 -12 6
-30 8 -40 5 -16 -5 -20 -2 -20 19 0 14 -4 26 -10 26 -6 0 -10 -35 -10 -85z"/>
<path d="M9460 2485 c0 -50 4 -85 10 -85 6 0 10 35 10 85 0 50 -4 85 -10 85
-6 0 -10 -35 -10 -85z"/>
<path d="M8932 2514 c-25 -17 -31 -81 -10 -102 24 -24 98 -9 98 20 0 4 -7 8
-15 8 -8 0 -15 -5 -15 -11 0 -18 -55 -6 -58 14 -3 14 4 17 42 17 52 0 60 16
26 50 -24 24 -38 25 -68 4z m57 -17 c14 -18 4 -27 -31 -27 -30 0 -35 9 -16 28
16 16 33 15 47 -1z"/>
<path d="M9068 2523 c-15 -4 -18 -16 -18 -64 0 -33 4 -59 10 -59 6 0 10 23 10
50 0 44 3 50 21 50 11 0 19 5 17 12 -5 14 -17 17 -40 11z"/>
<path d="M9153 2523 c-21 -4 -23 -10 -23 -64 0 -33 4 -59 10 -59 6 0 10 22 10
49 0 35 4 51 16 55 26 10 34 -3 34 -55 0 -27 5 -49 10 -49 6 0 10 20 10 44 0
44 19 74 40 61 5 -3 10 -28 10 -56 0 -27 5 -49 10 -49 6 0 10 26 10 59 0 51
-3 61 -20 66 -12 4 -28 1 -36 -6 -11 -9 -18 -9 -26 -1 -12 12 -16 13 -55 5z"/>
<path d="M9339 2510 c-18 -14 -20 -19 -8 -20 8 0 20 5 26 11 13 13 43 5 43
-10 0 -6 -14 -14 -32 -19 -36 -9 -54 -32 -45 -56 5 -12 18 -16 57 -14 l50 2 0
47 c0 74 -42 101 -91 59z m61 -65 c0 -17 -29 -34 -47 -28 -20 7 -15 23 10 33
31 13 37 12 37 -5z"/>
<path d="M8552 2278 c-30 -30 -10 -59 54 -82 46 -16 57 -42 20 -52 -32 -8 -66
3 -66 22 0 8 -4 14 -10 14 -18 0 -11 -39 9 -50 48 -25 111 -2 111 39 0 24 -17
37 -66 53 -47 16 -52 41 -9 46 19 3 33 -2 42 -14 16 -22 31 -9 17 14 -13 21
-84 28 -102 10z"/>
<path d="M8700 2205 c0 -50 4 -85 10 -85 6 0 10 22 10 49 0 36 4 51 16 55 27
10 44 -13 44 -60 0 -24 5 -44 10 -44 6 0 10 22 10 49 0 58 -20 86 -56 77 -21
-6 -24 -3 -24 19 0 14 -4 25 -10 25 -6 0 -10 -35 -10 -85z"/>
<path d="M9110 2265 c0 -22 -3 -25 -24 -19 -30 7 -66 -25 -66 -59 0 -42 27
-67 71 -65 l39 1 0 84 c0 49 -4 83 -10 83 -5 0 -10 -11 -10 -25z m-11 -49 c7
-8 11 -27 9 -43 -4 -38 -43 -45 -59 -10 -20 45 21 88 50 53z"/>
<path d="M8970 2261 c0 -11 -6 -22 -12 -24 -10 -4 -10 -6 0 -6 8 -1 12 -18 12
-51 0 -36 4 -52 15 -57 9 -3 19 -2 23 2 4 4 1 10 -5 12 -15 5 -18 93 -4 93 5
0 4 11 -2 25 -14 30 -27 32 -27 6z"/>
<path d="M9179 2232 c-25 -21 -30 -71 -9 -96 16 -21 64 -20 84 0 24 24 20 80
-6 98 -29 21 -41 20 -69 -2z m64 -23 c5 -9 7 -28 3 -43 -5 -22 -11 -27 -34
-24 -21 2 -28 9 -30 31 -6 50 37 75 61 36z"/>
<path d="M9511 2241 c-8 -5 -20 -7 -28 -4 -10 4 -13 -9 -13 -56 0 -34 4 -61
10 -61 6 0 10 17 10 38 0 46 20 78 44 69 12 -5 16 -19 16 -57 0 -27 5 -50 10
-50 6 0 10 25 10 55 0 43 -4 56 -19 65 -23 12 -22 12 -40 1z"/>
<path d="M8832 2183 l3 -58 48 -1 47 -2 0 59 c0 33 -4 59 -10 59 -5 0 -10 -17
-10 -37 0 -47 -12 -66 -36 -61 -15 2 -20 14 -22 51 -2 26 -8 47 -13 47 -6 0
-9 -24 -7 -57z"/>
<path d="M9299 2183 c20 -68 39 -74 56 -18 l12 40 12 -43 c18 -64 31 -53 66
57 5 17 4 22 -6 19 -7 -2 -18 -22 -24 -44 l-12 -39 -12 43 c-15 52 -38 55 -47
7 -3 -19 -10 -35 -15 -35 -4 0 -11 16 -15 35 -3 19 -12 35 -19 35 -10 0 -9
-13 4 -57z"/>
<path d="M12141 2264 c-46 -59 -10 -144 62 -144 47 0 77 34 77 86 0 52 -31 84
-82 84 -28 0 -42 -7 -57 -26z m103 -16 c33 -46 7 -108 -44 -108 -32 0 -60 31
-60 65 0 34 28 65 60 65 18 0 34 -8 44 -22z"/>
<path d="M12330 2270 c-14 -14 -20 -33 -20 -65 0 -32 6 -51 20 -65 37 -37 120
-19 120 26 0 20 -13 17 -28 -6 -15 -24 -54 -26 -76 -4 -18 18 -21 66 -6 95 13
23 62 26 80 4 16 -19 30 -19 30 0 0 36 -87 48 -120 15z"/>
<path d="M11760 1990 c0 -5 11 -10 25 -10 24 0 25 -2 25 -75 0 -60 3 -75 15
-75 12 0 15 15 15 75 0 73 1 75 25 75 14 0 25 5 25 10 0 6 -28 10 -65 10 -37
0 -65 -4 -65 -10z"/>
<path d="M11910 1915 c0 -50 4 -85 10 -85 6 0 10 17 10 38 0 46 20 78 44 69
12 -5 16 -19 16 -57 0 -27 5 -50 10 -50 6 0 10 24 10 54 0 61 -15 80 -54 70
-23 -5 -26 -3 -26 20 0 14 -4 26 -10 26 -6 0 -10 -35 -10 -85z"/>
<path d="M12380 1915 c0 -50 4 -85 10 -85 6 0 10 17 10 38 0 46 20 78 44 69
12 -5 16 -19 16 -57 0 -27 5 -50 10 -50 6 0 10 24 10 54 0 61 -15 80 -54 70
-23 -5 -26 -3 -26 20 0 14 -4 26 -10 26 -6 0 -10 -35 -10 -85z"/>
<path d="M12650 1915 c0 -50 4 -85 10 -85 6 0 10 35 10 85 0 50 -4 85 -10 85
-6 0 -10 -35 -10 -85z"/>
<path d="M12780 1974 c0 -21 -3 -24 -21 -19 -31 10 -59 -21 -59 -65 0 -46 15
-60 63 -58 l37 1 0 84 c0 49 -4 83 -10 83 -5 0 -10 -12 -10 -26z m-11 -48 c7
-8 11 -27 9 -43 -2 -22 -8 -28 -28 -28 -20 0 -26 6 -28 28 -3 27 12 57 28 57
4 0 13 -6 19 -14z"/>
<path d="M12068 1953 c-15 -4 -18 -16 -18 -64 0 -33 4 -59 10 -59 6 0 10 23
10 50 0 44 3 50 21 50 11 0 19 5 17 12 -5 14 -17 17 -40 11z"/>
<path d="M12140 1940 c-24 -24 -26 -72 -4 -94 20 -20 68 -21 84 -1 16 19 5 34
-12 17 -16 -16 -55 -15 -61 2 -8 20 2 26 45 26 31 0 38 4 38 19 0 20 -35 51
-57 51 -7 0 -22 -9 -33 -20z m58 -12 c19 -19 14 -28 -16 -28 -35 0 -45 9 -31
27 14 16 31 17 47 1z"/>
<path d="M12266 1941 c-22 -24 -15 -37 30 -56 19 -8 34 -19 34 -24 0 -15 -43
-14 -58 1 -17 17 -27 2 -12 -17 9 -11 26 -15 49 -13 33 3 36 6 36 33 0 24 -5
31 -32 39 -18 5 -33 15 -33 22 0 17 32 18 48 2 6 -6 15 -8 19 -4 10 10 -25 36
-47 36 -9 0 -25 -9 -34 -19z"/>
<path d="M12532 1944 c-26 -18 -30 -74 -6 -98 18 -19 65 -21 82 -4 21 21 15
85 -10 102 -12 9 -27 16 -33 16 -6 0 -21 -7 -33 -16z m57 -18 c7 -8 11 -27 9
-43 -2 -21 -9 -29 -27 -31 -13 -2 -28 2 -32 10 -29 45 17 104 50 64z"/>
<path d="M11942 1698 c-30 -30 -10 -59 54 -82 46 -16 57 -42 20 -52 -32 -8
-66 3 -66 22 0 8 -4 14 -10 14 -18 0 -11 -39 9 -50 48 -25 111 -2 111 39 0 24
-17 37 -66 53 -47 16 -52 41 -9 46 19 3 33 -2 42 -14 16 -22 31 -9 17 14 -13
21 -84 28 -102 10z"/>
<path d="M12350 1700 c0 -5 5 -10 10 -10 6 0 10 5 10 10 0 6 -4 10 -10 10 -5
0 -10 -4 -10 -10z"/>
<path d="M12223 1675 c-6 -14 -7 -27 -2 -31 5 -3 9 -27 9 -55 0 -42 3 -49 20
-49 11 0 20 5 20 10 0 6 -4 10 -10 10 -15 0 -12 87 3 93 10 4 10 6 0 6 -7 1
-13 10 -13 21 0 27 -13 25 -27 -5z"/>
<path d="M12289 1678 c-2 -13 -2 -48 1 -78 4 -48 8 -55 28 -58 25 -4 30 13 7
22 -21 8 -20 75 1 83 15 5 15 7 0 15 -9 5 -16 16 -16 23 0 24 -17 17 -21 -7z"/>
<path d="M12108 1660 c-47 -29 -24 -120 31 -120 29 0 60 25 47 37 -4 4 -11 2
-15 -6 -11 -18 -55 -10 -59 12 -3 14 4 17 43 17 43 0 46 1 40 23 -4 12 -10 25
-14 29 -12 13 -56 18 -73 8z m60 -33 c3 -13 -3 -17 -27 -17 -20 0 -31 5 -31
14 0 29 53 32 58 3z"/>
<path d="M12433 1663 c-21 -4 -23 -10 -23 -64 0 -33 4 -59 10 -59 6 0 10 22
10 49 0 37 4 50 17 55 24 10 43 -19 43 -66 0 -21 5 -38 10 -38 17 0 12 97 -6
114 -16 16 -21 17 -61 9z"/>
<path d="M12551 1651 c-42 -42 -13 -117 41 -109 22 4 28 1 26 -11 -4 -18 -58
-29 -58 -12 0 6 -4 11 -10 11 -16 0 -11 -27 6 -34 27 -10 52 -7 68 10 20 20
23 154 4 154 -7 0 -23 3 -35 6 -14 4 -28 -1 -42 -15z m62 -22 c5 -9 7 -28 3
-42 -8 -34 -42 -36 -57 -3 -22 47 27 88 54 45z"/>
<path d="M12350 1600 c0 -33 4 -60 10 -60 6 0 10 27 10 60 0 33 -4 60 -10 60
-6 0 -10 -27 -10 -60z"/>
<path d="M14300 2174 l0 -44 -90 0 c-53 0 -90 -4 -90 -10 0 -6 37 -10 90 -10
l90 0 0 -46 c0 -25 3 -44 8 -42 45 19 161 91 157 98 -3 4 -41 28 -85 53 l-80
46 0 -45z"/>
<path d="M9150 305 c0 -69 3 -85 15 -85 10 0 15 11 15 35 0 32 2 35 31 35 45
0 69 16 69 48 0 40 -17 52 -77 52 l-53 0 0 -85z m106 50 c9 -23 -15 -45 -47
-45 -26 0 -29 4 -29 30 0 28 3 30 35 30 23 0 38 -6 41 -15z"/>
<path d="M9347 373 c-3 -10 -17 -48 -31 -85 -20 -52 -23 -68 -12 -68 8 0 17
11 20 25 5 21 12 25 45 25 33 0 40 -4 45 -25 4 -14 13 -25 21 -25 15 0 10 16
-39 135 -16 37 -40 46 -49 18z m41 -55 c11 -27 10 -28 -17 -28 -29 0 -29 1
-18 35 11 38 16 37 35 -7z"/>
<path d="M9470 305 l0 -85 45 0 c61 0 95 32 95 88 0 57 -28 82 -90 82 l-50 0
0 -85z m106 40 c11 -17 14 -34 9 -52 -10 -41 -24 -53 -61 -53 l-34 0 0 65 0
65 35 0 c26 0 39 -6 51 -25z"/>
<path d="M260 8255 l0 -85 65 0 c37 0 65 4 65 10 0 6 -25 10 -55 10 -54 0 -55
0 -55 30 0 29 1 30 50 30 28 0 50 5 50 10 0 6 -22 10 -50 10 -47 0 -50 2 -50
25 0 23 3 25 50 25 28 0 50 5 50 10 0 6 -27 10 -60 10 l-60 0 0 -85z"/>
<path d="M420 8255 c0 -98 18 -116 22 -22 l3 62 43 -62 c23 -35 47 -63 52 -63
6 0 10 37 10 85 0 98 -18 116 -22 23 l-3 -63 -40 63 c-22 34 -46 62 -52 62
-10 0 -13 -24 -13 -85z"/>
<path d="M610 8298 c-6 -24 -15 -56 -20 -72 -6 -16 -10 -36 -10 -44 0 -30 17
3 35 67 9 36 19 71 22 78 3 7 0 13 -6 13 -5 0 -15 -19 -21 -42z"/>
<path d="M666 8324 c-9 -8 -16 -19 -16 -23 0 -18 28 -42 65 -54 52 -18 56 -50
8 -55 -24 -2 -35 2 -45 17 -15 24 -28 27 -28 7 0 -26 30 -46 69 -46 44 0 61
14 61 52 0 24 -6 29 -50 45 -34 12 -50 23 -48 33 4 21 52 25 68 6 14 -18 30
-21 30 -7 0 20 -33 41 -65 41 -18 0 -41 -7 -49 -16z"/>
<path d="M826 8324 c-9 -8 -16 -19 -16 -23 0 -18 28 -42 65 -54 52 -18 56 -50
8 -55 -24 -2 -35 2 -45 17 -15 24 -28 27 -28 7 0 -26 30 -46 69 -46 44 0 61
14 61 52 0 24 -6 29 -50 45 -34 12 -50 23 -48 33 4 21 52 25 68 6 14 -18 30
-21 30 -7 0 20 -33 41 -65 41 -18 0 -41 -7 -49 -16z"/>
<path d="M16080 7825 l0 -85 46 0 c61 0 84 14 84 50 0 16 -5 32 -10 35 -7 4
-7 12 0 25 13 24 13 26 -6 44 -10 10 -33 16 -65 16 l-49 0 0 -85z m95 40 c0
-16 -8 -21 -37 -23 -35 -3 -38 -1 -38 23 0 24 3 26 38 23 29 -2 37 -7 37 -23z
m-1 -51 c9 -3 16 -14 16 -24 0 -21 -19 -30 -61 -30 -26 0 -29 4 -29 30 0 26 3
30 29 30 16 0 36 -3 45 -6z"/>
<path d="M16254 7889 c-29 -32 -26 -105 5 -130 25 -21 71 -25 101 -9 44 24 45
126 0 150 -32 17 -85 12 -106 -11z m100 -15 c9 -8 16 -31 16 -49 0 -18 -7 -41
-16 -49 -22 -23 -71 -20 -84 3 -14 27 -13 84 2 99 17 17 64 15 82 -4z"/>
<path d="M16441 7884 c-46 -59 -10 -144 62 -144 47 0 77 34 77 86 0 52 -31 84
-82 84 -28 0 -42 -7 -57 -26z m103 -16 c33 -46 7 -108 -44 -108 -32 0 -60 31
-60 65 0 34 28 65 60 65 18 0 34 -8 44 -22z"/>
<path d="M16600 7900 c0 -5 14 -10 30 -10 l30 0 0 -75 c0 -43 4 -75 10 -75 6
0 10 32 10 75 l0 75 30 0 c17 0 30 5 30 10 0 6 -30 10 -70 10 -40 0 -70 -4
-70 -10z"/>
<path d="M470 7000 c41 -105 50 -122 62 -118 18 6 79 168 63 168 -7 0 -22 -28
-35 -62 -12 -35 -25 -66 -29 -71 -4 -4 -17 24 -30 63 -14 43 -28 70 -36 70
-12 0 -11 -9 5 -50z"/>
<path d="M630 6965 l0 -85 45 0 c61 0 95 32 95 88 0 57 -28 82 -90 82 l-50 0
0 -85z m106 40 c11 -17 14 -34 9 -52 -10 -41 -24 -53 -61 -53 l-34 0 0 65 0
65 35 0 c26 0 39 -6 51 -25z"/>
<path d="M800 6965 l0 -85 50 0 c66 0 90 23 90 85 0 62 -24 85 -90 85 l-50 0
0 -85z m104 49 c21 -20 20 -73 -1 -96 -9 -10 -29 -18 -45 -18 -28 0 -28 0 -28
65 l0 65 29 0 c16 0 37 -7 45 -16z"/>
<path d="M16115 6393 c4 -10 18 -47 30 -83 13 -36 29 -65 36 -65 7 0 27 37 45
83 22 56 28 82 19 82 -7 0 -22 -28 -35 -62 -28 -80 -36 -88 -45 -46 -15 73
-29 108 -43 108 -10 0 -12 -6 -7 -17z"/>
<path d="M16290 6325 c0 -50 4 -85 10 -85 6 0 10 35 10 85 0 50 -4 85 -10 85
-6 0 -10 -35 -10 -85z"/>
<path d="M16350 6325 c0 -50 4 -85 10 -85 6 0 10 27 10 60 0 33 3 60 8 60 4 0
24 -27 46 -60 54 -85 66 -80 66 25 0 69 -3 85 -15 85 -12 0 -15 -14 -15 -62
l0 -63 -41 63 c-58 86 -69 83 -69 -23z"/>
<path d="M630 6155 l0 -85 46 0 c61 0 84 14 84 50 0 16 -5 32 -10 35 -7 4 -7
12 0 25 13 24 13 26 -6 44 -10 10 -33 16 -65 16 l-49 0 0 -85z m95 40 c0 -15
-8 -21 -32 -23 -30 -3 -33 -1 -33 23 0 24 3 26 33 23 24 -2 32 -8 32 -23z m-1
-51 c9 -3 16 -14 16 -24 0 -20 -19 -30 -56 -30 -20 0 -24 5 -24 30 0 25 4 30
24 30 13 0 31 -3 40 -6z"/>
<path d="M790 6155 c0 -69 3 -85 15 -85 10 0 15 11 15 35 0 32 2 35 31 35 45
0 69 16 69 48 0 40 -17 52 -77 52 l-53 0 0 -85z m106 50 c9 -23 -15 -45 -47
-45 -26 0 -29 4 -29 30 0 28 3 30 35 30 23 0 38 -6 41 -15z"/>
<path d="M271 5304 c-45 -57 -12 -144 55 -144 33 0 74 28 74 50 0 16 -14 12
-33 -10 -34 -40 -97 -11 -97 45 0 54 75 90 99 48 5 -10 13 -14 17 -10 17 17
-14 42 -53 45 -34 3 -44 -1 -62 -24z"/>
<path d="M444 5309 c-29 -32 -26 -105 5 -130 25 -21 71 -25 101 -9 44 24 45
126 0 150 -32 17 -85 12 -106 -11z m100 -15 c9 -8 16 -31 16 -49 0 -18 -7 -41
-16 -49 -22 -23 -71 -20 -84 3 -14 27 -13 84 2 99 17 17 64 15 82 -4z"/>
<path d="M610 5245 c0 -69 3 -85 15 -85 12 0 15 14 16 63 l1 62 21 -62 c11
-35 26 -63 33 -63 7 0 20 24 29 53 26 77 35 79 35 9 0 -35 4 -62 10 -62 6 0
10 35 10 86 0 76 -2 85 -17 82 -12 -2 -25 -24 -38 -60 -11 -31 -23 -59 -27
-63 -3 -3 -16 23 -28 59 -17 51 -26 66 -41 66 -17 0 -19 -8 -19 -85z"/>
<path d="M820 5245 c0 -50 4 -85 10 -85 6 0 10 16 10 35 0 34 1 35 40 35 31 0
43 5 56 25 15 23 15 27 0 50 -14 21 -24 25 -66 25 l-50 0 0 -85z m95 35 c0
-22 -5 -25 -37 -28 -36 -3 -38 -2 -38 28 0 30 2 31 38 28 32 -3 37 -6 37 -28z"/>
<path d="M16082 4568 c-30 -30 -10 -59 54 -82 65 -22 46 -69 -22 -52 -13 4
-24 13 -24 21 0 8 -4 15 -10 15 -18 0 -11 -39 9 -50 27 -14 84 -13 99 2 7 7
12 24 12 39 0 21 -7 29 -32 39 -71 26 -79 31 -76 43 7 18 63 21 78 3 14 -18
30 -21 30 -7 0 35 -90 57 -118 29z"/>
<path d="M16220 4573 c0 -5 4 -24 9 -43 6 -19 15 -54 21 -77 16 -63 35 -54 56
27 19 75 23 74 44 -5 14 -52 25 -73 36 -62 3 3 16 42 29 86 18 63 20 81 9 81
-8 0 -18 -23 -26 -60 -6 -33 -15 -60 -18 -60 -3 0 -13 26 -21 57 -22 83 -42
82 -65 -3 -19 -73 -19 -73 -44 24 -6 23 -15 42 -20 42 -6 0 -10 -3 -10 -7z"/>
<path d="M670 3955 c0 -85 16 -119 22 -47 3 35 5 37 41 40 50 4 48 22 -3 22
-36 0 -40 3 -40 25 0 23 3 25 50 25 28 0 50 5 50 10 0 6 -27 10 -60 10 l-60 0
0 -85z"/>
<path d="M810 3955 l0 -85 46 0 c61 0 84 14 84 50 0 16 -5 32 -10 35 -7 4 -7
12 0 25 13 24 13 26 -6 44 -10 10 -33 16 -65 16 l-49 0 0 -85z m95 40 c0 -15
-8 -21 -32 -23 -30 -3 -33 -1 -33 23 0 24 3 26 33 23 24 -2 32 -8 32 -23z m-1
-51 c9 -3 16 -14 16 -24 0 -20 -19 -30 -56 -30 -20 0 -24 5 -24 30 0 25 4 30
24 30 13 0 31 -3 40 -6z"/>
<path d="M16080 2135 c0 -50 4 -85 10 -85 6 0 10 35 10 85 0 50 -4 85 -10 85
-6 0 -10 -35 -10 -85z"/>
<path d="M16140 2135 l0 -85 55 0 c30 0 55 5 55 10 0 6 -18 10 -40 10 l-40 0
0 75 c0 60 -3 75 -15 75 -12 0 -15 -16 -15 -85z"/>
<path d="M16280 2135 c0 -50 4 -85 10 -85 6 0 10 35 10 85 0 50 -4 85 -10 85
-6 0 -10 -35 -10 -85z"/>
<path d="M16340 2136 c0 -51 4 -86 10 -86 6 0 10 30 11 68 l1 67 22 -65 c13
-36 29 -65 36 -65 7 0 23 27 34 60 l21 60 3 -62 c4 -94 22 -76 22 22 0 67 -3
85 -14 85 -13 0 -56 -93 -56 -120 0 -6 -4 -10 -8 -10 -5 0 -17 28 -28 62 -13
41 -26 64 -37 66 -15 3 -17 -7 -17 -82z"/>
<path d="M110 2025 c0 -50 4 -85 10 -85 6 0 10 16 10 35 0 34 1 35 40 35 31 0
43 5 56 25 15 23 15 27 0 50 -14 21 -24 25 -66 25 l-50 0 0 -85z m95 35 c0
-22 -5 -25 -37 -28 -36 -3 -38 -2 -38 28 0 30 2 31 38 28 32 -3 37 -6 37 -28z"/>
<path d="M281 2084 c-47 -60 -10 -144 64 -144 55 0 75 15 75 55 0 33 -2 35
-35 35 -19 0 -35 -4 -35 -10 0 -5 9 -10 19 -10 26 0 36 -17 21 -35 -16 -19
-60 -19 -85 -1 -22 16 -26 76 -6 100 18 22 77 21 90 -1 5 -10 13 -14 17 -10
18 18 -14 42 -58 45 -40 3 -49 -1 -67 -24z"/>
<path d="M470 2090 c-51 -51 -13 -150 57 -150 72 0 108 85 62 144 -26 33 -88
37 -119 6z m98 -12 c16 -16 16 -90 0 -106 -17 -17 -58 -15 -80 5 -22 20 -24
76 -2 97 18 19 65 21 82 4z"/>
<path d="M654 2089 c-29 -32 -26 -105 5 -130 25 -21 71 -25 101 -9 44 24 45
126 0 150 -32 17 -85 12 -106 -11z m100 -15 c9 -8 16 -31 16 -49 0 -18 -7 -41
-16 -49 -22 -23 -71 -20 -84 3 -14 27 -13 84 2 99 17 17 64 15 82 -4z"/>
<path d="M830 2025 l0 -85 44 0 c63 0 91 25 91 83 0 63 -24 87 -87 87 l-48 0
0 -85z m98 53 c17 -17 15 -84 -4 -102 -8 -9 -29 -16 -45 -16 l-29 0 0 65 0 65
33 0 c18 0 38 -5 45 -12z"/>
<path d="M16050 91 c0 -44 18 -64 52 -59 20 3 23 9 24 53 l2 50 -7 -45 c-5
-36 -10 -45 -26 -45 -16 0 -21 8 -23 43 -4 53 -22 56 -22 3z"/>
<path d="M16150 80 c0 -50 0 -50 33 -50 40 0 57 15 57 50 0 35 -17 50 -57 50
-33 0 -33 0 -33 -50z m74 18 c14 -23 -3 -52 -33 -56 -19 -3 -21 1 -21 38 0 37
2 41 21 38 12 -2 27 -11 33 -20z"/>
<path d="M16259 104 c-18 -49 25 -87 75 -68 26 10 20 44 -6 43 -17 -1 -19 -2
-5 -6 23 -6 22 -20 -4 -28 -30 -10 -53 16 -45 49 5 19 13 26 31 26 14 0 25 -4
25 -10 0 -5 4 -10 10 -10 5 0 7 7 4 15 -4 9 -19 15 -40 15 -28 0 -36 -5 -45
-26z"/>
<path d="M16430 115 c-9 -10 -9 -15 -1 -15 6 0 11 -16 11 -35 0 -19 5 -35 10
-35 6 0 10 23 10 50 0 51 -8 61 -30 35z"/>
<path d="M16510 115 c-9 -10 -9 -15 -1 -15 6 0 11 -16 11 -35 0 -19 5 -35 10
-35 6 0 10 23 10 50 0 51 -8 61 -30 35z"/>
<path d="M16578 105 c-15 -33 3 -75 32 -75 23 0 36 36 26 75 -8 33 -43 33 -58
0z m47 -5 c9 -27 -3 -60 -21 -60 -10 0 -14 12 -14 40 0 43 23 57 35 20z"/>
<path d="M16687 124 c-4 -4 -4 -18 -1 -30 4 -14 2 -24 -5 -24 -6 0 -8 8 -4 18
6 15 5 15 -10 3 -23 -18 -22 -41 2 -41 11 0 22 -6 24 -12 7 -18 29 12 22 30
-3 8 -5 25 -5 38 0 23 -10 31 -23 18z"/>
<path d="M16740 111 c-14 -28 -12 -56 5 -71 21 -18 45 -5 45 25 0 22 -9 30
-32 26 -5 0 -8 6 -8 15 0 11 6 14 21 9 15 -5 19 -4 15 4 -11 17 -34 13 -46 -8z
m38 -48 c-5 -25 -28 -28 -28 -4 0 12 6 21 16 21 9 0 14 -7 12 -17z"/>
<path d="M16368 63 c6 -2 18 -2 25 0 6 3 1 5 -13 5 -14 0 -19 -2 -12 -5z"/>
</g>
</svg>
