<?xml version="1.0" standalone="no"?>
<!DOCTYPE svg PUBLIC "-//W3C//DTD SVG 20010904//EN"
 "http://www.w3.org/TR/2001/REC-SVG-20010904/DTD/svg10.dtd">
<svg version="1.0" xmlns="http://www.w3.org/2000/svg"
 width="1696.000000pt" height="1006.000000pt" viewBox="0 0 1696.000000 1006.000000"
 preserveAspectRatio="xMidYMid meet">
<metadata>
Created by potrace 1.13, written by Peter Selinger 2001-2015
</metadata>
<g transform="translate(0.000000,1006.000000) scale(0.100000,-0.100000)"
fill="#000000" stroke="none">
<path d="M1290 9225 l0 -755 -105 0 -105 0 0 -225 0 -225 105 0 105 0 0 -420
0 -420 -105 0 -105 0 0 -225 0 -225 105 0 105 0 0 -205 0 -205 -105 0 -105 0
0 -225 0 -225 105 0 105 0 0 -205 0 -205 -105 0 -105 0 0 -225 0 -225 105 0
105 0 0 -420 0 -420 -105 0 -105 0 0 -225 0 -225 105 0 105 0 -2 -742 -3 -743
-102 -3 -103 -3 0 -219 0 -219 103 -3 102 -3 3 -744 c1 -529 5 -748 13 -758
10 -11 652 -13 3880 -13 l3869 0 0 -100 0 -100 330 0 330 0 0 100 0 100 3020
0 3020 0 0 810 0 809 103 3 102 3 3 222 2 223 -105 0 -105 0 0 960 0 960 105
0 105 0 0 220 0 220 -105 0 -105 0 0 690 0 689 103 3 102 3 3 223 2 222 -105
0 -105 0 0 530 0 530 105 0 105 0 0 225 0 225 -105 0 -105 0 0 970 0 970
-7230 0 -7230 0 0 -755z m14420 -230 l0 -955 -95 0 -95 0 0 -110 0 -110 -402
0 -403 1 -28 28 c-28 28 -28 29 -25 152 l3 124 85 6 85 5 -82 2 c-46 1 -83 4
-83 7 0 3 29 64 65 135 l65 129 -68 3 -67 3 -5 130 -4 130 -6 -130 -5 -130
-67 -3 -68 -3 65 -129 c36 -71 65 -132 65 -135 0 -3 -37 -6 -82 -7 l-83 -2 85
-5 85 -6 3 -124 c3 -123 3 -124 -25 -152 l-28 -28 -422 -1 -423 0 0 -1170 0
-1170 -190 95 c-104 52 -194 95 -200 95 -6 0 -10 -77 -10 -215 l0 -215 -635 0
-635 0 0 755 0 755 -215 0 -215 0 0 205 0 205 265 0 c170 0 265 4 265 10 0 6
-95 10 -265 10 l-265 0 0 105 c0 58 -3 105 -6 105 -3 0 -202 -97 -441 -215
l-436 -215 -203 0 -204 0 -2 323 -3 322 -322 3 -323 2 0 215 0 215 -215 0
-215 0 0 310 0 310 174 0 174 0 6 -33 c14 -72 83 -146 157 -167 19 -6 121 -10
226 -10 l193 0 0 40 0 40 65 0 65 0 0 -255 0 -255 219 0 219 0 430 -214 c237
-118 433 -212 436 -209 3 4 6 51 6 105 l0 98 210 0 c133 0 210 4 210 10 0 6
-77 10 -210 10 l-210 0 0 205 0 205 215 0 215 0 0 192 c0 256 -16 238 222 238
l178 0 0 -30 c0 -16 3 -30 7 -30 5 0 57 16 118 37 l110 36 -110 37 c-60 21
-113 35 -117 33 -5 -2 -8 -17 -8 -34 l0 -29 -175 0 c-173 0 -174 0 -200 25
l-25 26 0 189 0 190 -215 0 -215 0 0 205 0 205 210 0 c133 0 210 4 210 10 0 6
-77 10 -210 10 l-210 0 0 110 c0 61 -2 110 -5 110 -3 0 -199 -97 -435 -215
l-430 -215 -220 0 -220 0 0 -255 0 -255 -65 0 -65 0 0 41 0 41 -207 -4 c-200
-3 -210 -4 -253 -28 -56 -31 -106 -97 -115 -150 l-7 -40 -184 0 -184 0 0 -320
0 -320 -420 0 -420 0 0 105 0 105 -540 0 -540 0 0 205 0 205 215 0 215 0 2
218 3 217 200 0 200 0 3 -32 c2 -18 7 -33 11 -33 12 0 178 57 197 68 13 7 -5
17 -82 42 -54 18 -105 35 -111 38 -9 3 -13 -7 -13 -32 l0 -36 -205 0 -205 0 0
215 0 215 -870 0 -870 0 0 -215 0 -215 -959 0 -958 0 -7 41 c-20 124 -144 229
-271 229 -127 0 -251 -105 -271 -229 l-7 -41 -268 0 -269 0 0 -405 0 -404 -25
-26 -26 -25 -719 0 -720 0 0 110 0 110 -105 0 -105 0 0 733 c0 404 3 737 7
740 3 4 3241 7 7195 7 l7188 0 0 -955z m-4080 319 l0 -416 -410 208 c-225 114
-410 210 -410 214 0 5 799 408 813 409 4 1 7 -186 7 -415z m-3872 -211 l-3
-418 -852 -3 -853 -2 0 420 0 420 855 0 855 0 -2 -417z m-3846 247 c101 -28
178 -135 178 -245 0 -76 -18 -123 -71 -180 -94 -102 -253 -107 -357 -11 -89
81 -110 195 -56 302 58 116 179 169 306 134z m7297 -254 c236 -118 432 -212
435 -209 3 4 6 53 6 110 l0 103 205 0 205 0 0 -188 c0 -176 -1 -188 -20 -200
-11 -7 -20 -23 -20 -37 0 -14 9 -30 20 -37 19 -12 20 -24 20 -200 l0 -188
-205 0 -205 0 0 109 0 109 -434 -214 -435 -214 -210 0 -211 0 -2 253 -3 252
-72 3 -73 3 0 54 0 55 285 0 c183 0 285 4 285 10 0 6 -102 10 -285 10 l-285 0
0 60 0 59 73 3 72 3 3 253 2 252 210 0 210 0 429 -214z m-7655 -8 c31 -113 40
-133 85 -178 154 -154 410 -81 465 133 l13 52 956 3 957 2 2 -217 3 -218 213
-3 212 -2 0 -205 0 -205 -398 0 c-386 0 -398 1 -410 20 -8 13 -23 20 -42 20
-19 0 -34 -7 -42 -20 -12 -19 -24 -20 -200 -20 l-188 0 -430 215 c-236 118
-432 215 -435 215 -3 0 -5 -97 -5 -215 l0 -215 -611 0 -612 0 -23 26 -24 25 0
400 0 399 255 0 c196 0 256 -3 259 -12z m6636 -413 l0 -205 -190 0 c-149 0
-199 3 -228 15 -84 36 -126 106 -120 201 5 82 38 132 109 168 51 25 58 26 241
26 l188 0 0 -205z m-3300 -434 c0 -269 4 -422 10 -426 7 -4 10 138 10 419 l0
426 210 0 210 0 0 -215 0 -215 535 0 535 0 0 -95 0 -95 -215 0 -215 0 0 -440
0 -440 430 0 430 0 0 -200 0 -200 -30 0 c-17 0 -30 -5 -30 -12 0 -18 64 -208
70 -208 8 0 79 208 72 214 -3 3 -18 6 -34 6 l-28 0 0 200 0 200 205 0 205 0 0
-530 0 -530 -205 0 -205 0 0 110 0 110 -220 0 c-140 0 -220 -4 -220 -10 0 -6
77 -10 210 -10 l210 0 0 -100 0 -100 -105 0 -105 0 0 -535 0 -535 -640 0 -640
0 0 265 0 265 -870 0 -870 0 0 -545 0 -545 430 0 430 0 0 -375 0 -375 435 0
435 0 0 -205 0 -205 -990 0 -990 0 0 183 c0 171 1 183 20 195 27 17 27 68 0
82 -19 10 -20 21 -20 310 l0 300 -1155 0 -1155 0 0 400 c0 387 1 401 20 420
19 19 33 20 205 20 l185 0 0 -210 0 -210 870 0 870 0 0 435 0 435 -870 0 -870
0 0 -215 0 -215 -185 0 c-170 0 -185 1 -194 19 -17 30 -50 33 -78 5 l-24 -24
-719 0 -720 0 0 110 0 110 -105 0 -105 0 0 205 0 205 105 0 105 0 0 105 0 105
1475 0 c1462 0 1475 0 1495 -20 11 -11 27 -20 35 -20 8 0 24 9 35 20 19 19 33
20 415 20 l395 0 0 -30 c0 -16 3 -30 7 -30 15 0 198 62 206 70 5 4 -36 22 -90
40 -54 18 -104 35 -110 38 -9 3 -13 -7 -13 -32 l0 -36 -391 0 -391 0 -29 27
-29 28 0 177 0 178 323 2 322 3 3 108 3 107 204 0 204 0 3 -107 3 -108 760 0
760 0 3 108 3 107 94 0 95 0 0 -34 0 -34 110 36 c60 20 106 39 102 43 -7 7
-192 69 -205 69 -4 0 -7 -13 -7 -30 l0 -30 -95 0 -95 0 0 105 0 105 -765 0
-765 0 0 -105 0 -105 -205 0 -205 0 0 205 0 205 215 0 215 0 0 512 c0 512 0
512 22 535 l21 23 409 0 408 0 0 215 0 215 205 0 205 0 0 -419z m-2135 205
l410 -203 -195 -98 c-107 -54 -295 -146 -417 -206 l-223 -108 0 410 c0 225 3
409 8 409 4 0 192 -92 417 -204z m-3245 -201 l0 -205 -205 0 -205 0 0 205 0
205 205 0 205 0 0 -205z m10120 -220 l0 -415 -412 206 c-227 113 -415 208
-417 210 -3 3 809 413 822 413 4 1 7 -186 7 -414z m-8640 185 c11 -11 27 -20
35 -20 8 0 24 9 35 20 20 20 33 20 635 20 l615 0 0 -210 c0 -134 4 -210 10
-210 6 0 199 95 430 210 l420 210 192 0 c174 -1 195 -3 216 -19 l22 -19 0
-506 0 -506 -205 0 -205 0 0 105 0 105 -655 0 -655 0 0 -215 0 -215 -1175 0
-1175 0 0 110 0 110 -105 0 -105 0 0 420 0 420 105 0 105 0 0 105 0 105 720 0
c707 0 720 0 740 -20z m6700 -610 l0 -420 -850 0 -850 0 0 420 0 420 850 0
850 0 0 -420z m6260 215 l0 -205 -210 0 -210 0 0 205 0 205 210 0 210 0 0
-205z m-1330 -35 c11 -11 27 -20 35 -20 8 0 24 9 35 20 19 19 33 20 425 20
l405 0 0 -105 0 -105 95 0 95 0 0 -530 0 -530 -100 0 -100 0 0 -105 0 -105
-215 0 -215 0 0 -188 c0 -104 -3 -237 -7 -295 l-6 -107 -114 0 -113 0 0 35 c0
19 -4 35 -10 35 -6 0 -10 -33 -10 -80 0 -47 4 -80 10 -80 6 0 10 16 10 35 l0
35 129 0 130 0 -6 295 -6 295 211 0 212 0 0 -110 0 -110 100 0 100 0 0 -690 0
-690 -100 0 -100 0 0 -105 0 -105 -185 0 -186 0 -24 28 -24 27 -1 323 c0 274
2 323 15 328 22 9 29 43 11 63 -11 12 -16 44 -18 121 l-3 105 -42 3 c-40 3
-43 5 -43 33 0 16 -2 29 -5 29 -3 0 -32 -13 -65 -30 -81 -41 -100 -40 -100 5
0 19 -4 35 -10 35 -6 0 -10 -33 -10 -80 0 -47 4 -80 10 -80 6 0 10 14 10 30 0
38 22 39 90 5 27 -14 56 -25 65 -25 9 0 15 9 15 25 0 21 5 25 30 25 l30 0 0
-92 c0 -125 -3 -128 -132 -128 l-98 0 0 35 c0 19 -4 35 -10 35 -6 0 -10 -33
-10 -80 0 -47 4 -80 10 -80 6 0 10 16 10 35 l0 35 100 0 c152 0 140 30 140
-357 l0 -322 -25 -26 c-25 -24 -32 -25 -133 -25 -96 0 -108 2 -120 20 -7 11
-23 20 -37 20 -14 0 -33 -9 -42 -20 -17 -19 -30 -20 -461 -20 -379 0 -443 2
-448 15 -3 8 -14 17 -25 20 -18 6 -19 19 -19 238 l0 232 225 113 225 112 270
0 270 0 0 265 c0 170 -4 265 -10 265 -6 0 -10 -92 -10 -255 l0 -255 -255 0
-255 0 -230 115 -230 115 0 1165 0 1165 415 0 c402 0 416 -1 435 -20z m-4280
-515 l0 -325 225 0 225 0 420 -210 c231 -115 424 -210 430 -210 6 0 10 41 10
105 l0 105 205 0 205 0 0 -745 0 -745 -205 0 -205 0 0 430 0 430 -870 0 -870
0 0 -805 0 -805 -205 0 -205 0 0 805 0 805 -110 0 -110 0 0 530 0 530 215 0
215 0 0 215 0 215 315 0 315 0 0 -325z m-5170 -315 l0 -420 -635 0 -635 0 0
420 0 420 635 0 635 0 0 -420z m6458 -198 l-3 -209 -415 205 -415 204 415 208
415 208 3 -204 c1 -111 1 -297 0 -412z m-10118 203 l0 -205 -205 0 -205 0 0
205 0 205 205 0 205 0 0 -205z m2370 -230 l0 -215 325 0 325 0 0 -176 0 -176
-29 -29 -29 -29 -1471 0 -1471 0 0 110 0 110 -105 0 -105 0 0 205 0 205 105 0
105 0 0 105 0 105 1175 0 1175 0 0 -215z m3230 10 l0 -205 -745 0 -745 0 0
205 0 205 745 0 745 0 0 -205z m8830 -430 l0 -205 -207 2 -208 3 -3 203 -2
202 210 0 210 0 0 -205z m-14430 -210 l0 -205 -205 0 -205 0 0 205 0 205 205
0 205 0 0 -205z m7970 -1510 l0 -1495 -422 2 -423 3 -1 1493 -2 1492 424 0
424 0 0 -1495z m2150 -105 l0 -1600 -850 0 -850 0 0 1600 0 1600 850 0 850 0
0 -1600z m-6460 750 l0 -420 -850 0 -850 0 0 420 0 420 850 0 850 0 0 -420z
m9029 4 c3 -3 -814 -414 -824 -414 -3 0 -5 187 -5 415 l0 415 413 -206 c226
-113 414 -208 416 -210z m-6871 -216 l2 -528 -855 0 -855 0 0 530 0 530 853
-2 852 -3 3 -527z m-5818 217 l0 -205 -205 0 -205 0 0 205 0 205 205 0 205 0
0 -205z m1484 -39 l26 -23 0 -402 0 -401 1155 0 1155 0 0 -292 c0 -286 0 -292
-22 -315 -21 -22 -26 -23 -210 -23 l-188 0 -420 210 c-231 116 -427 210 -435
210 -12 0 -15 -18 -15 -105 l0 -105 -1255 0 -1255 0 0 110 0 110 -105 0 -105
0 0 420 0 420 105 0 105 0 0 105 0 105 719 0 720 0 25 -24z m9066 -315 l0
-340 -24 -25 -23 -26 -182 0 -181 0 0 365 0 365 205 0 205 0 0 -339z m1290
135 c0 -115 4 -207 9 -211 5 -3 94 35 197 85 103 49 189 90 190 90 2 0 4 -100
4 -222 -1 -203 -2 -225 -19 -245 l-19 -23 -791 0 -790 0 -26 25 -25 26 0 339
0 340 635 0 635 0 0 -204z m-4737 -323 c4 -174 7 -509 7 -745 l0 -428 -210 0
-210 0 -430 215 c-236 118 -432 215 -435 215 -3 0 -5 -47 -5 -105 l0 -105
-425 0 -425 0 0 365 0 365 430 0 430 0 0 270 0 270 633 0 634 0 6 -317z m7325
-210 l-3 -208 -205 0 -205 0 -3 195 c-1 107 0 200 2 207 4 10 53 13 211 13
l205 0 -2 -207z m-6028 -818 l0 -805 870 0 870 0 0 325 0 325 635 0 635 0 0
-209 c0 -122 4 -212 10 -216 5 -3 95 37 200 90 l190 95 0 -220 0 -219 -107 -4
c-60 -1 -7 -3 117 -3 124 0 177 2 118 3 l-108 4 0 224 0 225 233 116 232 116
315 -3 315 -4 3 263 c1 170 -1 262 -8 262 -6 0 -11 -93 -12 -252 l-3 -253
-307 -3 -308 -2 -230 115 -230 115 0 200 0 200 120 0 c73 0 120 4 120 10 0 6
-50 10 -130 10 l-130 0 0 -205 0 -205 -190 95 c-104 52 -194 95 -200 95 -6 0
-10 -77 -10 -215 l0 -215 -635 0 -635 0 0 475 0 475 183 0 c171 0 185 -1 202
-20 10 -11 26 -20 37 -20 10 0 26 9 35 20 17 20 30 20 810 20 780 0 793 0 813
-20 11 -11 28 -20 38 -20 11 0 27 9 37 20 18 19 31 20 458 20 439 0 441 0 464
-22 23 -21 23 -25 23 -230 l0 -208 -115 0 -115 0 0 29 c0 17 -4 33 -10 36 -6
4 -10 -23 -10 -74 0 -47 4 -81 10 -81 6 0 10 16 10 35 l0 35 125 0 125 0 0
216 0 217 26 23 c23 22 33 24 132 24 96 0 108 -2 120 -20 7 -11 23 -20 37 -20
14 0 30 9 37 20 12 19 24 20 200 20 l188 0 0 -105 0 -105 100 0 100 0 0 -960
0 -960 -100 0 -100 0 0 -105 0 -105 -185 0 c-172 0 -186 1 -205 20 -25 25 -45
25 -70 0 -18 -18 -34 -19 -207 -20 -325 -1 -293 -5 -293 30 0 17 -11 52 -24
78 -50 97 -137 151 -242 152 -138 0 -243 -80 -274 -210 l-12 -50 -529 0 -529
0 0 160 0 160 -655 0 -655 0 0 -545 0 -545 323 -2 322 -3 3 -203 2 -202 -36 0
c-25 0 -35 -4 -32 -13 3 -6 20 -56 37 -109 18 -54 34 -98 36 -98 2 0 18 44 36
98 17 53 34 102 36 109 3 7 -8 13 -29 15 l-33 3 0 200 0 200 323 3 322 2 0
105 0 105 1075 0 1075 0 0 243 0 242 29 28 29 27 181 0 181 0 0 -110 0 -110
100 0 100 0 0 -790 0 -790 -3000 0 -3000 0 0 100 0 100 -160 0 -160 0 0 325 0
325 -382 -2 -383 -3 -3 -142 -3 -143 -104 0 c-63 0 -105 -4 -105 -10 0 -6 78
-10 215 -10 131 0 215 4 215 10 0 5 -45 11 -102 12 l-103 3 -3 133 -3 132 371
0 370 0 0 -315 0 -315 -160 0 -160 0 0 -100 0 -100 -3865 0 -3865 0 2 737 3
738 103 3 102 3 0 104 0 105 1365 0 1364 0 26 -25 25 -26 0 -269 0 -270 129 0
130 0 4 -38 c2 -20 4 1 4 48 0 47 -2 68 -4 48 l-4 -38 -120 0 -119 0 0 263 c0
260 0 263 23 282 20 18 41 20 237 25 l215 5 22 43 c25 50 21 54 73 -76 18 -46
36 -80 41 -75 4 4 26 51 47 103 l40 95 17 -40 c9 -22 28 -68 42 -103 14 -35
29 -60 33 -55 5 4 26 51 48 103 40 94 41 95 52 65 28 -76 67 -159 77 -162 6
-2 19 19 29 47 l18 50 238 0 238 0 0 -501 0 -501 -29 -29 -29 -29 -404 0
c-222 0 -467 3 -545 7 l-143 6 -2 246 c-2 158 -7 245 -13 244 -6 -2 -10 -97
-10 -260 l0 -258 561 4 561 4 16 -23 c20 -29 66 -30 85 -1 14 21 21 21 311 23
l296 3 -293 2 -294 3 -29 29 -29 29 0 511 0 511 -246 0 -245 0 -20 -46 c-12
-25 -22 -44 -24 -42 -1 2 -19 44 -40 93 -20 50 -40 94 -44 98 -4 4 -25 -34
-46 -85 -21 -51 -41 -96 -45 -101 -3 -4 -24 36 -45 88 -21 53 -41 98 -45 100
-4 2 -17 -22 -30 -53 -13 -31 -32 -77 -43 -101 l-20 -45 -39 95 c-21 52 -42
97 -47 102 -4 4 -18 -18 -30 -48 l-23 -55 -212 0 c-199 0 -213 1 -229 20 -22
26 -51 26 -77 0 -20 -20 -33 -20 -1385 -20 l-1365 0 0 105 0 105 -105 0 -105
0 0 745 0 745 105 0 105 0 0 110 0 110 1255 0 1255 0 0 -210 0 -210 -215 0
-215 0 0 -215 0 -215 -190 0 -190 0 0 -105 0 -105 -290 0 c-187 0 -290 -4
-290 -10 0 -6 103 -10 290 -10 l290 0 0 -205 0 -205 -290 0 c-187 0 -290 -4
-290 -10 0 -6 103 -10 290 -10 l290 0 0 -105 0 -105 385 0 385 0 0 435 0 435
-185 0 -185 0 0 210 0 210 205 0 205 0 0 -110 c0 -60 2 -110 5 -110 3 0 199
97 435 215 l430 215 186 0 c251 0 234 18 234 -237 l0 -193 1000 0 1000 0 0
-105 c0 -58 2 -105 4 -105 2 0 201 97 442 215 l438 215 200 -2 201 -3 3 -212
2 -213 213 -2 212 -3 3 -152 3 -153 -326 0 -325 0 0 -440 0 -440 655 0 655 0
0 440 0 440 -322 2 -323 3 0 150 0 150 218 3 217 2 0 695 0 695 205 0 205 0 0
-805z m-8400 280 l0 -205 -205 0 -205 0 0 205 0 205 205 0 205 0 0 -205z
m2965 -7 c223 -112 405 -205 405 -208 0 -5 -805 -410 -815 -410 -3 0 -5 185
-5 410 0 226 2 410 5 410 3 0 187 -91 410 -202z m3694 -424 c3 -3 -814 -414
-824 -414 -3 0 -5 187 -5 415 l0 415 413 -206 c226 -113 414 -208 416 -210z
m5600 0 c4 -3 -206 -109 -566 -285 l-263 -128 0 415 0 414 413 -206 c226 -113
414 -208 416 -210z m-9784 -859 l0 -420 -367 -3 -368 -2 0 418 c0 230 3 422 7
425 4 4 169 6 367 5 l361 -3 0 -420z m5705 -325 l0 -420 -635 0 -635 0 0 420
0 420 635 0 635 0 0 -420z m3230 -430 l0 -530 -635 0 -635 0 0 530 0 530 635
0 635 0 0 -530z m1485 441 c88 -49 143 -157 130 -255 -18 -136 -137 -234 -272
-224 -150 11 -254 131 -240 278 17 189 215 294 382 201z m1535 -226 l0 -205
-207 2 -208 3 -3 203 -2 202 210 0 210 0 0 -205z m-14430 -105 l0 -210 -205 0
-205 0 0 210 0 210 205 0 205 0 0 -210z m12490 87 c0 -38 34 -118 66 -155 57
-67 123 -96 214 -97 86 0 135 21 195 80 43 43 64 83 73 138 l8 42 236 3 237 2
25 -25 26 -26 0 -234 0 -235 -1070 0 -1070 0 0 260 0 260 530 0 c432 0 530 -2
530 -13z m-4310 -1807 l0 -210 -312 2 -313 3 -3 195 c-1 107 0 200 2 207 4 10
73 13 316 13 l310 0 0 -210z"/>
<path d="M2986 9398 c-9 -12 -16 -41 -16 -63 0 -73 53 -111 93 -67 24 26 23
113 -1 135 -26 23 -58 21 -76 -5z"/>
<path d="M11976 9378 c-9 -12 -16 -41 -16 -63 0 -73 53 -111 93 -67 24 26 23
113 -1 135 -26 23 -58 21 -76 -5z"/>
<path d="M14510 8905 l0 -85 46 0 c61 0 84 14 84 50 0 16 -5 32 -10 35 -7 4
-7 12 0 25 13 24 13 26 -6 44 -10 10 -33 16 -65 16 l-49 0 0 -85z"/>
<path d="M12990 8686 l0 -86 48 0 c37 0 54 5 68 21 17 19 17 23 3 48 -12 20
-13 31 -5 44 19 30 -5 52 -63 55 l-51 3 0 -85z"/>
<path d="M11976 8088 c-9 -12 -16 -41 -16 -63 0 -73 53 -111 93 -67 24 26 23
113 -1 135 -26 23 -58 21 -76 -5z"/>
<path d="M12320 7250 c-51 -51 -13 -150 57 -150 72 0 108 85 62 144 -26 33
-88 37 -119 6z"/>
<path d="M3725 9154 c-44 -25 -81 -47 -83 -49 -3 -3 153 -95 162 -95 3 0 6 19
8 43 l3 42 95 6 95 5 -97 2 -97 2 -3 45 -3 45 -80 -46z"/>
<path d="M5950 8045 l0 -85 44 0 c63 0 91 25 91 83 0 63 -24 87 -87 87 l-48 0
0 -85z"/>
<path d="M7616 6988 c-9 -12 -16 -41 -16 -63 0 -73 53 -111 93 -67 24 26 23
113 -1 135 -26 23 -58 21 -76 -5z"/>
<path d="M8030 6482 c0 -55 -4 -71 -20 -85 -11 -9 -20 -20 -20 -25 0 -19 28
-43 65 -55 52 -18 56 -50 8 -55 -24 -2 -35 2 -45 17 -15 24 -28 27 -28 7 0
-26 30 -46 69 -46 44 0 61 14 61 52 0 24 -6 29 -50 45 -34 12 -50 23 -48 33 5
22 47 24 69 4 21 -19 33 -15 23 9 -3 9 -19 20 -35 26 -22 7 -29 16 -29 35 0
22 5 26 30 26 17 0 30 5 30 10 0 6 -13 10 -30 10 -23 0 -30 4 -30 20 0 17 7
20 41 20 24 0 38 4 34 10 -3 6 -26 10 -51 10 l-44 0 0 -68z"/>
<path d="M8160 6325 l0 -85 44 0 c63 0 91 25 91 83 0 63 -24 87 -87 87 l-48 0
0 -85z"/>
<path d="M5730 6105 l0 -85 46 0 c61 0 84 14 84 50 0 16 -5 32 -10 35 -7 4 -7
12 0 25 13 24 13 26 -6 44 -10 10 -33 16 -65 16 l-49 0 0 -85z"/>
<path d="M7597 5774 c-4 -4 -7 -76 -7 -161 l0 -153 -45 0 c-25 0 -45 -5 -45
-11 0 -6 21 -9 53 -7 l52 3 3 158 c2 148 4 157 22 157 18 0 20 -9 22 -157 l3
-158 140 0 140 0 3 158 c2 129 5 157 17 157 12 0 15 -28 17 -157 l3 -158 140
0 140 0 3 158 c2 129 5 157 17 157 12 0 15 -28 17 -157 l3 -158 58 -3 c35 -2
57 1 57 8 0 5 -22 10 -50 10 l-49 0 -3 158 -3 157 -30 0 -30 0 -3 -157 -3
-158 -124 0 -124 0 -3 158 -3 157 -30 0 -30 0 -3 -157 -3 -158 -124 0 -124 0
-3 158 -3 157 -30 3 c-17 2 -34 0 -38 -4z"/>
<path d="M4030 6825 c0 -50 4 -85 10 -85 6 0 10 15 10 34 0 19 4 37 8 40 18
11 53 -8 73 -40 29 -48 56 -46 28 1 -12 19 -26 35 -32 35 -7 0 -3 6 8 12 66
37 37 88 -51 88 l-54 0 0 -85z"/>
<path d="M4353 6855 c-16 -11 -23 -26 -23 -50 0 -44 25 -69 62 -61 26 5 28 4
18 -14 -12 -22 -40 -26 -58 -8 -17 17 -28 2 -12 -17 17 -21 63 -19 83 3 21 23
25 152 5 152 -7 0 -22 3 -33 6 -11 2 -30 -2 -42 -11z"/>
<path d="M5770 6755 c0 -50 4 -85 10 -85 6 0 10 15 10 34 0 19 4 37 8 40 18
11 53 -8 73 -40 29 -48 56 -46 28 1 -12 19 -26 35 -32 35 -7 0 -3 6 8 12 66
37 37 88 -51 88 l-54 0 0 -85z"/>
<path d="M9160 4745 c0 -69 3 -85 15 -85 12 0 15 14 16 63 l1 62 21 -62 c11
-35 26 -63 33 -63 7 0 20 24 29 53 26 77 35 79 35 9 0 -35 4 -62 10 -62 6 0
10 35 10 86 0 76 -2 85 -17 82 -12 -2 -25 -24 -38 -60 -11 -31 -23 -59 -27
-63 -3 -3 -16 23 -28 59 -17 51 -26 66 -41 66 -17 0 -19 -8 -19 -85z"/>
<path d="M10790 4206 l0 -86 48 0 c37 0 54 5 68 21 17 19 17 23 3 48 -12 20
-13 31 -5 44 19 30 -5 52 -63 55 l-51 3 0 -85z"/>
<path d="M6004 5099 c-29 -32 -26 -105 5 -130 25 -21 71 -25 101 -9 44 24 45
126 0 150 -32 17 -85 12 -106 -11z"/>
<path d="M6680 4175 c-35 -29 -66 -59 -69 -67 -5 -15 -5 -15 72 46 l47 38 0
-101 c0 -55 3 -101 8 -101 4 0 63 45 132 100 l125 100 3 -100 c1 -55 6 -100
10 -100 4 0 63 45 132 100 l125 100 3 -105 3 -105 132 106 132 106 3 -96 c4
-137 22 -121 22 20 l0 115 -27 -20 c-16 -11 -75 -58 -133 -104 l-105 -85 -5
103 -5 103 -130 -104 -130 -104 -5 104 -5 104 -130 -104 -130 -104 -5 104 -5
103 -65 -52z"/>
<path d="M13700 4066 l0 -86 48 0 c37 0 54 5 68 21 17 19 17 23 3 48 -12 20
-13 31 -5 44 19 30 -5 52 -63 55 l-51 3 0 -85z"/>
<path d="M14500 3761 c0 -47 4 -81 10 -81 6 0 10 16 10 36 0 32 2 35 23 28 12
-3 44 -18 71 -31 55 -28 76 -25 76 12 0 21 5 25 30 25 l30 0 0 -95 c0 -131 -4
-135 -132 -135 l-98 0 0 34 c0 19 -4 38 -10 41 -6 4 -10 -25 -10 -80 0 -55 4
-84 10 -80 6 3 10 19 10 36 l0 29 101 0 c74 0 104 -4 115 -14 10 -11 14 -43
14 -130 l0 -116 -100 0 c-60 0 -100 -4 -100 -10 0 -6 79 -10 216 -10 141 0
213 3 209 10 -3 6 -50 10 -106 10 l-99 0 0 114 c0 65 4 117 10 121 26 16 30
43 10 68 -17 21 -20 41 -20 126 l0 101 -40 0 c-38 0 -40 2 -40 30 0 17 -2 30
-5 30 -3 0 -32 -13 -65 -30 -78 -39 -100 -39 -100 -1 0 17 -4 33 -10 36 -6 4
-10 -23 -10 -74z"/>
<path d="M14187 2952 c-19 -21 -23 -102 -7 -133 7 -12 21 -19 40 -19 36 0 50
23 50 85 0 25 -5 55 -10 66 -13 24 -52 25 -73 1z"/>
<path d="M14547 2938 c-8 -18 -22 -54 -31 -79 -24 -62 -46 -61 -46 3 0 26 -4
48 -10 48 -5 0 -10 -20 -10 -44 0 -31 -5 -46 -16 -50 -26 -10 -34 2 -34 50 0
24 -4 44 -10 44 -5 0 -10 -26 -10 -57 0 -32 -3 -68 -6 -80 -4 -14 -2 -23 5
-23 6 0 11 11 11 25 0 27 8 30 87 25 38 -2 43 1 49 24 5 22 12 26 45 26 33 0
41 -4 49 -25 5 -14 16 -25 24 -25 12 0 7 18 -19 81 -19 44 -35 83 -35 85 0 2
-6 4 -14 4 -7 0 -20 -15 -29 -32z"/>
<path d="M1697 2932 c-19 -21 -23 -102 -7 -133 15 -27 64 -25 84 3 9 12 16 41
16 63 0 73 -53 111 -93 67z"/>
<path d="M4980 2414 c-8 -9 -14 -39 -14 -69 0 -64 16 -87 58 -83 25 2 33 10
44 40 12 31 12 43 1 80 -12 37 -18 43 -45 46 -19 2 -36 -3 -44 -14z"/>
<path d="M4570 1225 c0 -45 -19 -46 -100 -5 -33 17 -62 30 -65 30 -3 0 -5 -13
-5 -30 0 -29 -2 -30 -45 -30 l-45 0 0 -104 c0 -80 -3 -106 -15 -116 -8 -7 -15
-23 -15 -37 0 -13 7 -26 15 -29 12 -5 15 -29 15 -125 l0 -119 -99 0 c-56 0
-103 -4 -106 -10 -4 -7 68 -10 209 -10 137 0 216 4 216 10 0 6 -40 10 -100 10
l-100 0 0 116 c0 146 -2 143 137 144 l102 0 4 -37 c2 -21 4 3 4 52 0 50 -2 73
-4 53 l-4 -38 -102 0 c-137 1 -137 1 -137 124 l0 97 33 -3 c27 -2 33 -8 35
-30 2 -16 8 -28 13 -28 5 0 37 14 70 31 34 17 67 28 74 25 8 -3 15 -20 18 -38
2 -18 5 4 5 50 1 45 0 82 -3 82 -3 0 -5 -16 -5 -35z"/>
<path d="M12141 574 c-46 -59 -10 -144 62 -144 47 0 77 34 77 86 0 52 -31 84
-82 84 -28 0 -42 -7 -57 -26z"/>
<path d="M3460 2943 c0 -5 34 -71 75 -148 l74 -140 -75 -141 c-41 -78 -74
-145 -74 -148 0 -3 72 -6 160 -6 88 0 160 1 160 3 0 2 -34 67 -75 145 -41 78
-75 144 -75 147 0 2 34 68 75 146 41 77 75 143 75 145 0 2 -72 4 -160 4 -88 0
-160 -3 -160 -7z m288 -21 c-15 -37 -120 -232 -126 -236 -7 -4 -132 221 -132
238 0 3 59 6 131 6 72 0 129 -4 127 -8z m-55 -427 c29 -55 53 -103 55 -107 2
-5 -55 -8 -127 -8 -72 0 -131 3 -131 6 0 4 28 60 63 125 72 137 60 139 140
-16z"/>
<path d="M12141 2264 c-46 -59 -10 -144 62 -144 47 0 77 34 77 86 0 52 -31 84
-82 84 -28 0 -42 -7 -57 -26z"/>
<path d="M14300 2174 l0 -44 -90 0 c-53 0 -90 -4 -90 -10 0 -6 37 -10 90 -10
l90 0 0 -46 c0 -25 3 -44 8 -42 45 19 161 91 157 98 -3 4 -41 28 -85 53 l-80
46 0 -45z"/>
<path d="M9470 305 l0 -85 45 0 c61 0 95 32 95 88 0 57 -28 82 -90 82 l-50 0
0 -85z"/>
<path d="M16080 7825 l0 -85 46 0 c61 0 84 14 84 50 0 16 -5 32 -10 35 -7 4
-7 12 0 25 13 24 13 26 -6 44 -10 10 -33 16 -65 16 l-49 0 0 -85z"/>
<path d="M16254 7889 c-29 -32 -26 -105 5 -130 25 -21 71 -25 101 -9 44 24 45
126 0 150 -32 17 -85 12 -106 -11z"/>
<path d="M16441 7884 c-46 -59 -10 -144 62 -144 47 0 77 34 77 86 0 52 -31 84
-82 84 -28 0 -42 -7 -57 -26z"/>
<path d="M630 6965 l0 -85 45 0 c61 0 95 32 95 88 0 57 -28 82 -90 82 l-50 0
0 -85z"/>
<path d="M800 6965 l0 -85 50 0 c66 0 90 23 90 85 0 62 -24 85 -90 85 l-50 0
0 -85z"/>
<path d="M630 6155 l0 -85 46 0 c61 0 84 14 84 50 0 16 -5 32 -10 35 -7 4 -7
12 0 25 13 24 13 26 -6 44 -10 10 -33 16 -65 16 l-49 0 0 -85z"/>
<path d="M444 5309 c-29 -32 -26 -105 5 -130 25 -21 71 -25 101 -9 44 24 45
126 0 150 -32 17 -85 12 -106 -11z"/>
<path d="M610 5245 c0 -69 3 -85 15 -85 12 0 15 14 16 63 l1 62 21 -62 c11
-35 26 -63 33 -63 7 0 20 24 29 53 26 77 35 79 35 9 0 -35 4 -62 10 -62 6 0
10 35 10 86 0 76 -2 85 -17 82 -12 -2 -25 -24 -38 -60 -11 -31 -23 -59 -27
-63 -3 -3 -16 23 -28 59 -17 51 -26 66 -41 66 -17 0 -19 -8 -19 -85z"/>
<path d="M810 3955 l0 -85 46 0 c61 0 84 14 84 50 0 16 -5 32 -10 35 -7 4 -7
12 0 25 13 24 13 26 -6 44 -10 10 -33 16 -65 16 l-49 0 0 -85z"/>
<path d="M470 2090 c-51 -51 -13 -150 57 -150 72 0 108 85 62 144 -26 33 -88
37 -119 6z"/>
<path d="M654 2089 c-29 -32 -26 -105 5 -130 25 -21 71 -25 101 -9 44 24 45
126 0 150 -32 17 -85 12 -106 -11z"/>
<path d="M830 2025 l0 -85 44 0 c63 0 91 25 91 83 0 63 -24 87 -87 87 l-48 0
0 -85z"/>
</g>
</svg>
